G04*
G04 #@! TF.GenerationSoftware,Altium Limited,Altium Designer,21.6.4 (81)*
G04*
G04 Layer_Physical_Order=1*
G04 Layer_Color=255*
%FSLAX25Y25*%
%MOIN*%
G70*
G04*
G04 #@! TF.SameCoordinates,FEAF3D2B-D975-464B-86DB-8C6995E3C2F8*
G04*
G04*
G04 #@! TF.FilePolarity,Positive*
G04*
G01*
G75*
%ADD10C,0.00787*%
%ADD27R,0.03937X0.01575*%
%ADD28R,0.01575X0.03937*%
%ADD29C,0.00394*%
%ADD30R,0.03543X0.01181*%
%ADD31R,0.01181X0.03543*%
%ADD32R,0.05118X0.01181*%
%ADD33R,0.01181X0.03543*%
%ADD34R,0.03543X0.01181*%
%ADD35R,0.01181X0.05118*%
%ADD36R,0.02756X0.02362*%
%ADD37R,0.02559X0.02441*%
%ADD38R,0.02362X0.02756*%
%ADD39R,0.02441X0.02559*%
%ADD40R,0.02756X0.01575*%
%ADD41R,0.01968X0.01575*%
%ADD42C,0.01000*%
%ADD43C,0.00591*%
%ADD44C,0.00984*%
%ADD45C,0.02756*%
G36*
X210532Y134236D02*
X214369Y134231D01*
X218207Y134222D01*
X222045Y134210D01*
X222045Y134210D01*
X225881Y134194D01*
X229718Y134174D01*
X233556Y134151D01*
X237391Y134125D01*
X237391Y134125D01*
X241228Y134094D01*
X245063Y134061D01*
X248898Y134023D01*
X252731Y133983D01*
X252731Y133983D01*
X256566Y133939D01*
X260399Y133891D01*
X264230Y133839D01*
X268062Y133784D01*
X271893Y133726D01*
X271893Y133726D01*
X275722Y133664D01*
X279551Y133598D01*
X283378Y133529D01*
X287206Y133457D01*
X287206D01*
X291030Y133381D01*
X294855Y133301D01*
X298679Y133218D01*
X302500Y133131D01*
X302500Y133131D01*
X306321Y133041D01*
X310140Y132947D01*
X313958Y132850D01*
X317774Y132749D01*
X321588Y132644D01*
X325402Y132537D01*
X329214Y132425D01*
X329214Y132425D01*
X333023Y132310D01*
X336831Y132192D01*
X340638Y132070D01*
X340639D01*
X344442Y131944D01*
X344442Y131944D01*
X348246Y131815D01*
X352046Y131683D01*
X352046Y131683D01*
X355845Y131547D01*
X359642Y131407D01*
X363436Y131264D01*
X367229Y131118D01*
X371018Y130968D01*
X374806Y130814D01*
X378592Y130657D01*
X382375Y130497D01*
X386157Y130333D01*
X386157D01*
X389934Y130165D01*
X393711Y129994D01*
X397484Y129820D01*
X397484Y129820D01*
X397971Y129797D01*
X398918Y129568D01*
X399806Y129163D01*
X400600Y128598D01*
X401273Y127893D01*
X401801Y127073D01*
X402164Y126168D01*
X402348Y125210D01*
X402348Y124723D01*
X402348Y106702D01*
Y106199D01*
X402152Y105213D01*
X401767Y104285D01*
X401209Y103449D01*
X400498Y102738D01*
X399662Y102180D01*
X398734Y101795D01*
X397748Y101599D01*
X397246Y101599D01*
X393702D01*
X393689Y101596D01*
X393676Y101598D01*
X392466Y101559D01*
X392427Y101550D01*
X392387Y101552D01*
X389987Y101236D01*
X389937Y101219D01*
X389884Y101216D01*
X387546Y100590D01*
X387499Y100566D01*
X387447Y100556D01*
X385211Y99629D01*
X385167Y99600D01*
X385117Y99583D01*
X383020Y98373D01*
X382981Y98338D01*
X382933Y98314D01*
X381013Y96841D01*
X380978Y96801D01*
X380934Y96772D01*
X379222Y95060D01*
X379193Y95016D01*
X379153Y94981D01*
X377680Y93061D01*
X377656Y93014D01*
X377622Y92974D01*
X376411Y90878D01*
X376394Y90828D01*
X376365Y90783D01*
X375439Y88547D01*
X375428Y88495D01*
X375405Y88448D01*
X374778Y86110D01*
X374775Y86057D01*
X374758Y86007D01*
X374688Y85476D01*
X374168Y85355D01*
X374050Y85531D01*
X373263Y86057D01*
X372836Y86142D01*
Y83817D01*
X371836D01*
Y86142D01*
X371408Y86057D01*
X370621Y85531D01*
X370096Y84745D01*
X370032Y84426D01*
X369466Y84143D01*
X369230Y84190D01*
X368100D01*
X367628Y84258D01*
X367514Y84455D01*
X366947D01*
Y84364D01*
X363994D01*
Y84600D01*
X364939Y85545D01*
X366947D01*
Y85455D01*
X367265D01*
X367022Y85818D01*
X366626Y86082D01*
X366797Y86523D01*
X367594Y86365D01*
X368397Y86525D01*
X369078Y86980D01*
X369533Y87661D01*
X369693Y88464D01*
X369533Y89268D01*
X369078Y89949D01*
X368397Y90404D01*
X367684Y90546D01*
X367491Y90831D01*
X367411Y91037D01*
X367578Y91287D01*
X367738Y92090D01*
X367587Y92847D01*
X367777Y93130D01*
X367869Y93591D01*
Y95381D01*
X367810Y95676D01*
X367914Y95851D01*
X368280Y96175D01*
X372792D01*
Y96175D01*
X372800Y96181D01*
X372898Y96162D01*
X374079D01*
X374345Y96214D01*
X374570Y96365D01*
X374721Y96590D01*
X374774Y96856D01*
Y98721D01*
X376639D01*
X376904Y98774D01*
X377130Y98924D01*
X377280Y99149D01*
X377333Y99415D01*
Y100596D01*
X377313Y100695D01*
X377320Y100703D01*
X377320D01*
Y104707D01*
X391661D01*
X391661Y104707D01*
X392122Y104799D01*
X392513Y105060D01*
X398485Y111032D01*
X399150D01*
X399150Y111032D01*
X399611Y111124D01*
X400002Y111385D01*
X400749Y112132D01*
X400749Y112132D01*
X401010Y112523D01*
X401102Y112984D01*
Y115615D01*
X401010Y116076D01*
X400749Y116466D01*
X400749Y116466D01*
X400002Y117214D01*
X399611Y117475D01*
X399303Y117536D01*
Y118681D01*
X394084D01*
X393717Y119000D01*
X393717Y119000D01*
X393717Y119000D01*
X391248D01*
Y117213D01*
X390748D01*
Y116713D01*
X387779D01*
Y115425D01*
X388098D01*
Y113353D01*
X386192Y111446D01*
X374620D01*
X374570Y111520D01*
X374345Y111671D01*
X374079Y111724D01*
X373359D01*
X372905Y112224D01*
X372910Y112305D01*
X373301Y112566D01*
X374048Y113313D01*
X374048Y113313D01*
X374309Y113704D01*
X374401Y114165D01*
Y116957D01*
X374309Y117418D01*
X374048Y117809D01*
X374048Y117809D01*
X373463Y118395D01*
X373463Y118395D01*
X372919Y118938D01*
X372602Y119150D01*
Y119862D01*
X367384D01*
X367016Y120181D01*
X367016Y120181D01*
X367016Y120181D01*
X364547D01*
Y118394D01*
X364047D01*
Y117894D01*
X361079D01*
Y116606D01*
X361398D01*
Y114012D01*
X364234D01*
X364350Y113989D01*
X364467Y114012D01*
X364994D01*
X366379Y112626D01*
Y112182D01*
X366312Y111711D01*
X366115Y111597D01*
Y111029D01*
X366206D01*
Y108077D01*
X365969D01*
X365024Y109021D01*
Y109742D01*
X364510D01*
X364568Y109655D01*
X364546Y109541D01*
X364294Y109165D01*
X362465D01*
X362200Y109112D01*
X362158Y109084D01*
X357543D01*
X357082Y108992D01*
X356692Y108731D01*
X356086Y108125D01*
X355715Y108004D01*
X355403Y108091D01*
X354911Y108419D01*
X354108Y108579D01*
X354059Y108569D01*
X353759Y109019D01*
X353810Y109096D01*
X353902Y109557D01*
Y112701D01*
X354012Y112780D01*
X354401Y112889D01*
X355892Y111399D01*
X355892Y111399D01*
X356282Y111138D01*
X356743Y111046D01*
X357158D01*
X357570Y110430D01*
X358251Y109975D01*
X359054Y109815D01*
X359858Y109975D01*
X360539Y110430D01*
X360994Y111111D01*
X361154Y111915D01*
X360994Y112718D01*
X360539Y113399D01*
X359858Y113854D01*
X359054Y114014D01*
X358251Y113854D01*
X357653Y113455D01*
X357242D01*
X356713Y113984D01*
X356920Y114484D01*
X357016D01*
Y118602D01*
X357016Y118602D01*
Y118814D01*
X357016D01*
X357016Y119102D01*
Y119712D01*
X357685D01*
X357843Y119475D01*
X358524Y119020D01*
X359328Y118860D01*
X360131Y119020D01*
X360579Y119319D01*
X361079Y119052D01*
Y118894D01*
X363547D01*
Y120181D01*
X361666D01*
X361349Y120568D01*
X361427Y120960D01*
X361267Y121763D01*
X360812Y122444D01*
X360943Y122958D01*
X361495Y123068D01*
X362282Y123594D01*
X362807Y124380D01*
X362893Y124808D01*
X358242D01*
X358328Y124380D01*
X358853Y123594D01*
X358991Y123502D01*
X358885Y122971D01*
X358524Y122899D01*
X357843Y122444D01*
X357627Y122121D01*
X357072D01*
Y128850D01*
X356980Y129310D01*
X356719Y129701D01*
X356719Y129701D01*
X356133Y130287D01*
X355743Y130548D01*
X355282Y130640D01*
X355282Y130640D01*
X329926D01*
X329088Y131478D01*
X328697Y131739D01*
X328236Y131830D01*
X328236Y131830D01*
X315209D01*
X314908Y132031D01*
X314447Y132123D01*
X314447Y132123D01*
X227769D01*
X227529Y132363D01*
X227138Y132625D01*
X226677Y132716D01*
X226677Y132716D01*
X152663D01*
X152202Y132625D01*
X151812Y132363D01*
X151812Y132363D01*
X151487Y132039D01*
X146518D01*
X146330Y132319D01*
X145649Y132775D01*
X144846Y132934D01*
X144042Y132775D01*
X143361Y132319D01*
X143174Y132039D01*
X97800D01*
X97340Y131948D01*
X96949Y131686D01*
X96949Y131686D01*
X94814Y129552D01*
X53073D01*
X52934Y129760D01*
X52253Y130215D01*
X51450Y130375D01*
X50646Y130215D01*
X49965Y129760D01*
X49826Y129552D01*
X38881D01*
X38881Y129552D01*
X38420Y129460D01*
X38029Y129199D01*
X37171Y128341D01*
X36841Y128407D01*
X36037Y128247D01*
X35356Y127792D01*
X34901Y127111D01*
X34741Y126307D01*
X34901Y125504D01*
X35356Y124823D01*
X36037Y124368D01*
X36841Y124208D01*
X37644Y124368D01*
X38325Y124823D01*
X38780Y125504D01*
X38940Y126307D01*
X38874Y126638D01*
X39380Y127144D01*
X49729D01*
X49965Y126791D01*
X50646Y126336D01*
X51450Y126176D01*
X52253Y126336D01*
X52934Y126791D01*
X53170Y127144D01*
X95313D01*
X95313Y127144D01*
X95774Y127235D01*
X96165Y127496D01*
X98299Y129631D01*
X143174D01*
X143361Y129350D01*
X144042Y128895D01*
X144846Y128736D01*
X145649Y128895D01*
X146330Y129350D01*
X146518Y129631D01*
X151986D01*
X151986Y129631D01*
X152447Y129722D01*
X152838Y129983D01*
X153162Y130308D01*
X226178D01*
X226419Y130067D01*
X226419Y130067D01*
X226810Y129806D01*
X227270Y129715D01*
X262442D01*
Y127924D01*
X262096Y127692D01*
X261641Y127011D01*
X261481Y126208D01*
X261641Y125404D01*
X262096Y124723D01*
X262777Y124268D01*
X263580Y124108D01*
X264384Y124268D01*
X265065Y124723D01*
X265520Y125404D01*
X265680Y126208D01*
X265520Y127011D01*
X265065Y127692D01*
X264850Y127835D01*
Y129715D01*
X313979D01*
X314279Y129514D01*
X314740Y129422D01*
X314740Y129422D01*
X327737D01*
X328575Y128584D01*
X328575Y128584D01*
X328966Y128323D01*
X329427Y128231D01*
X329427Y128231D01*
X330641D01*
X330958Y127845D01*
X330877Y127440D01*
X331037Y126637D01*
X331492Y125956D01*
X332173Y125501D01*
X332977Y125341D01*
X333780Y125501D01*
X334461Y125956D01*
X334916Y126637D01*
X335076Y127440D01*
X334996Y127845D01*
X335313Y128231D01*
X350945D01*
X351008Y127734D01*
X350221Y127208D01*
X349696Y126422D01*
X349611Y125994D01*
X351936D01*
Y125494D01*
X352436D01*
Y123169D01*
X352864Y123254D01*
X353650Y123780D01*
X354164Y124548D01*
X354201Y124555D01*
X354663Y124445D01*
Y122932D01*
X353292D01*
Y120969D01*
X353109Y120847D01*
X353109Y120847D01*
X351846Y119584D01*
X351585Y119193D01*
X351493Y118732D01*
X351493Y118732D01*
Y110055D01*
X350385Y108948D01*
X347271D01*
X346810Y108856D01*
X346419Y108595D01*
X346419Y108595D01*
X345150Y107326D01*
X344889Y106936D01*
X344861Y106791D01*
X344693Y106623D01*
X342278D01*
Y104272D01*
X338677D01*
X338441Y104713D01*
X338643Y105014D01*
X338728Y105442D01*
X336403D01*
Y105942D01*
X335903D01*
Y108267D01*
X335475Y108182D01*
X334688Y107657D01*
X334162Y106870D01*
X334087Y106489D01*
X333608Y106344D01*
X332231Y107721D01*
X331840Y107982D01*
X331379Y108074D01*
X331365Y108548D01*
Y109258D01*
X340626D01*
X340626Y109258D01*
X341086Y109350D01*
X341477Y109611D01*
X345079Y113213D01*
X345745D01*
X345745Y113213D01*
X346206Y113305D01*
X346596Y113566D01*
X347344Y114313D01*
X347344Y114313D01*
X347605Y114704D01*
X347696Y115165D01*
Y116113D01*
X348394D01*
Y117901D01*
X348895D01*
Y118401D01*
X350879D01*
Y119688D01*
X350560D01*
Y122519D01*
X348932D01*
X347671Y123780D01*
X347566Y124307D01*
X347111Y124988D01*
X346430Y125443D01*
X345627Y125603D01*
X344823Y125443D01*
X344142Y124988D01*
X343687Y124307D01*
X343527Y123503D01*
X343687Y122700D01*
X344142Y122019D01*
X344823Y121564D01*
X345627Y121404D01*
X346430Y121564D01*
X346461Y121584D01*
X347229Y120816D01*
Y120056D01*
X346910Y119688D01*
D01*
X346410Y119519D01*
X346206Y119656D01*
X345898Y119717D01*
Y120862D01*
X340679D01*
X340311Y121181D01*
X340311Y121181D01*
X340311Y121181D01*
X337842D01*
Y119394D01*
X337343D01*
Y118894D01*
X334374D01*
Y117794D01*
X333874Y117745D01*
X333807Y118080D01*
X333352Y118762D01*
X332671Y119217D01*
X331966Y119357D01*
X331500Y119823D01*
Y120511D01*
X331408Y120972D01*
X331147Y121363D01*
X331147Y121363D01*
X330440Y122070D01*
X330050Y122331D01*
X329589Y122423D01*
X329589Y122423D01*
X326283D01*
X326096Y122703D01*
X325414Y123158D01*
X324611Y123318D01*
X323808Y123158D01*
X323127Y122703D01*
X322671Y122022D01*
X322512Y121218D01*
X322671Y120415D01*
X323127Y119734D01*
X323808Y119279D01*
X324611Y119119D01*
X325414Y119279D01*
X326096Y119734D01*
X326283Y120014D01*
X329090D01*
X329092Y120012D01*
Y119324D01*
X329092Y119324D01*
X329183Y118863D01*
X329444Y118472D01*
X329913Y118004D01*
X329768Y117277D01*
X329928Y116474D01*
X330175Y116104D01*
X329908Y115604D01*
X319504D01*
Y116799D01*
X316535D01*
Y117799D01*
X319504D01*
Y119087D01*
X319185D01*
Y121681D01*
X316940D01*
Y121823D01*
X316865Y122204D01*
X316649Y122527D01*
X316419Y122756D01*
X316419Y122757D01*
X316235Y122941D01*
X315912Y123157D01*
X315531Y123232D01*
X303865D01*
X303484Y123157D01*
X303161Y122941D01*
X302219Y121998D01*
X302003Y121675D01*
X301927Y121294D01*
Y120289D01*
X300099D01*
Y120310D01*
X300008Y120771D01*
X299747Y121162D01*
X299747Y121162D01*
X299162Y121747D01*
X298771Y122008D01*
X298310Y122100D01*
X298310Y122100D01*
X294258D01*
X294258Y122100D01*
X294032Y122055D01*
X292465D01*
Y122319D01*
X287246D01*
X286878Y122638D01*
X286878Y122638D01*
X286878Y122638D01*
X284409D01*
Y120850D01*
X283910D01*
Y120350D01*
X280941D01*
Y119063D01*
X281260D01*
Y116993D01*
X280760Y116786D01*
X275211Y122335D01*
X274820Y122596D01*
X274359Y122688D01*
X274359Y122688D01*
X265744D01*
Y122772D01*
X260525D01*
X260157Y123091D01*
X260157Y123091D01*
X260157Y123091D01*
X257689D01*
Y121303D01*
X257189D01*
Y120803D01*
X254221D01*
Y119516D01*
X254539D01*
Y116921D01*
X257951D01*
X258067Y116898D01*
X258668D01*
X258726Y116608D01*
X258987Y116218D01*
X259741Y115463D01*
X260132Y115202D01*
X260593Y115111D01*
X260593Y115111D01*
X274007D01*
X279430Y109688D01*
X279430Y109688D01*
X279821Y109427D01*
X280281Y109335D01*
X280281Y109335D01*
X292709D01*
X293186Y109281D01*
X293300Y109084D01*
X293868D01*
Y109175D01*
X296820D01*
Y108939D01*
X295875Y107994D01*
X293868D01*
Y108084D01*
X293550D01*
X293655Y107926D01*
X293402Y107426D01*
X279219D01*
X277572Y109073D01*
X277181Y109334D01*
X276721Y109426D01*
X276721Y109426D01*
X275670D01*
X274870Y110226D01*
X274935Y110557D01*
X274776Y111360D01*
X274320Y112041D01*
X273639Y112496D01*
X272836Y112656D01*
X272032Y112496D01*
X271352Y112041D01*
X270896Y111360D01*
X270839Y111074D01*
X270796Y111014D01*
X270260Y110726D01*
X270083Y110761D01*
X270083Y110761D01*
X260911D01*
X260578Y111135D01*
X260632Y111408D01*
X260473Y112211D01*
X260018Y112892D01*
X259336Y113347D01*
X258533Y113507D01*
X257730Y113347D01*
X257049Y112892D01*
X256593Y112211D01*
X256450Y111491D01*
X255997Y111238D01*
X255132Y112102D01*
Y112772D01*
X255041Y113233D01*
X254780Y113623D01*
X254779Y113623D01*
X253322Y115080D01*
X253388Y115411D01*
X253228Y116214D01*
X252773Y116895D01*
X252092Y117350D01*
X251289Y117510D01*
X250485Y117350D01*
X249804Y116895D01*
X249349Y116214D01*
X249189Y115411D01*
X249349Y114607D01*
X249804Y113926D01*
X250455Y113491D01*
X250480Y113295D01*
X250477Y113172D01*
X250448Y112969D01*
X249790Y112529D01*
X249335Y111848D01*
X249175Y111045D01*
X249335Y110241D01*
X249790Y109560D01*
X250471Y109105D01*
X251108Y108979D01*
X251185Y108591D01*
X251446Y108201D01*
X255078Y104569D01*
X255078Y104569D01*
X255468Y104308D01*
X255929Y104216D01*
X265981D01*
X267947Y102250D01*
X267756Y101788D01*
X247188D01*
X247139Y102288D01*
X247807Y102421D01*
X248488Y102876D01*
X248943Y103558D01*
X249103Y104361D01*
X248943Y105164D01*
X248488Y105845D01*
X247807Y106300D01*
X247003Y106460D01*
X246200Y106300D01*
X245519Y105845D01*
X245072Y105176D01*
X241850D01*
Y106555D01*
X242704D01*
Y110280D01*
X238586D01*
Y110280D01*
X238374D01*
Y110280D01*
X234256D01*
Y109622D01*
X231007D01*
X230855Y110122D01*
X230919Y110164D01*
X234625Y113871D01*
X235543D01*
X235543Y113871D01*
X236004Y113962D01*
X236395Y114223D01*
X237558Y115386D01*
X237691D01*
X238152Y115478D01*
X238327Y115595D01*
X238566D01*
X238947Y115671D01*
X239269Y115887D01*
X239592Y116209D01*
X240054Y116018D01*
Y114958D01*
X239735D01*
Y113670D01*
X241720D01*
Y113170D01*
X242220D01*
Y111383D01*
X243704D01*
X243840Y111056D01*
X245560D01*
Y113336D01*
X246060D01*
Y113836D01*
X248281D01*
Y115615D01*
X247962D01*
Y118761D01*
X244766D01*
Y120703D01*
X245046Y120890D01*
X245501Y121572D01*
X245661Y122375D01*
X245501Y123178D01*
X245046Y123860D01*
X244365Y124315D01*
X243562Y124474D01*
X242758Y124315D01*
X242077Y123860D01*
X241622Y123178D01*
X241462Y122375D01*
X241622Y121572D01*
X242077Y120890D01*
X242358Y120703D01*
Y117997D01*
X241936Y117913D01*
X241750Y117788D01*
X240405D01*
Y119896D01*
X240329Y120277D01*
X240113Y120600D01*
X239020Y121694D01*
Y123047D01*
X233801D01*
X233433Y123366D01*
X233433Y123366D01*
X233433Y123366D01*
X230965D01*
Y121579D01*
X230465D01*
Y121079D01*
X227496D01*
Y119791D01*
X227815D01*
Y117719D01*
X225867Y115771D01*
X225380D01*
X225344Y115795D01*
X224884Y115887D01*
X224884Y115887D01*
X216513D01*
X216513Y115887D01*
X216053Y115795D01*
X215662Y115534D01*
X215662Y115534D01*
X214259Y114131D01*
X203333D01*
X202148Y115316D01*
X201757Y115577D01*
X201296Y115669D01*
X201296Y115669D01*
X200798D01*
X200377Y115945D01*
Y117126D01*
X200325Y117392D01*
X200174Y117617D01*
X200100Y117667D01*
Y122113D01*
X200527Y122540D01*
X201953D01*
Y122169D01*
X204331D01*
Y121169D01*
X201953D01*
Y119882D01*
X202272D01*
Y117287D01*
X203959D01*
X204048Y116838D01*
X204309Y116448D01*
X204927Y115830D01*
X204927Y115830D01*
X205318Y115568D01*
X205779Y115477D01*
X205779Y115477D01*
X210966D01*
X210966Y115477D01*
X211128Y115509D01*
X212897D01*
X212897Y115509D01*
X213358Y115601D01*
X213749Y115862D01*
X214359Y116472D01*
X214359Y116472D01*
X214620Y116863D01*
X214712Y117324D01*
X214712Y117324D01*
Y126117D01*
X214712Y126117D01*
X214620Y126578D01*
X214359Y126969D01*
X213159Y128169D01*
X212768Y128430D01*
X212307Y128522D01*
X212307Y128522D01*
X207728D01*
X207723Y128523D01*
X207723Y128523D01*
X198315D01*
X197854Y128431D01*
X197463Y128170D01*
X197463Y128170D01*
X193713Y124420D01*
X193452Y124030D01*
X193360Y123569D01*
X193360Y123569D01*
Y120366D01*
X191709D01*
X191650Y120662D01*
X191389Y121053D01*
X190012Y122430D01*
X189621Y122691D01*
X189160Y122783D01*
X189160Y122783D01*
X185571D01*
Y123047D01*
X180352D01*
X179984Y123366D01*
X179984Y123366D01*
X179984Y123366D01*
X177516D01*
Y121579D01*
X177016D01*
Y121079D01*
X174047D01*
Y119791D01*
X174366D01*
Y117915D01*
X173904Y117724D01*
X169474Y122155D01*
X169083Y122416D01*
X168622Y122507D01*
X168622Y122507D01*
X158846D01*
Y122772D01*
X153628D01*
X153260Y123091D01*
X153260Y123091D01*
X153260Y123091D01*
X150791D01*
Y121303D01*
X150291D01*
Y120803D01*
X147323D01*
Y119516D01*
X147642D01*
Y116921D01*
X151053D01*
X151169Y116898D01*
X151771D01*
X151828Y116608D01*
X152089Y116218D01*
X152844Y115463D01*
X153234Y115202D01*
X153695Y115111D01*
X153695Y115111D01*
X167048D01*
X172434Y109725D01*
X172434Y109725D01*
X172825Y109464D01*
X173286Y109372D01*
X184747D01*
X184817Y109332D01*
X184880Y109269D01*
X184942Y109161D01*
X185510D01*
Y109252D01*
X188462D01*
Y109016D01*
X187517Y108071D01*
X185510D01*
Y108161D01*
X185192D01*
X185297Y108003D01*
X185044Y107503D01*
X166376D01*
X164218Y109662D01*
Y111762D01*
X156832D01*
Y110913D01*
X155723D01*
X155637Y111040D01*
X154956Y111495D01*
X154153Y111655D01*
X153349Y111495D01*
X152668Y111040D01*
X152213Y110359D01*
X152053Y109556D01*
X152213Y108753D01*
X152668Y108071D01*
X153349Y107616D01*
X154153Y107457D01*
X154956Y107616D01*
X155637Y108071D01*
X155926Y108504D01*
X156832D01*
Y107959D01*
X162515D01*
X165026Y105448D01*
X165026Y105448D01*
X165417Y105187D01*
X165878Y105095D01*
X187528D01*
X187578Y105021D01*
X187803Y104870D01*
X187969Y104837D01*
X188214Y104375D01*
X187316Y103477D01*
X160627D01*
X160392Y103918D01*
X160529Y104123D01*
X160688Y104927D01*
X160529Y105730D01*
X160073Y106411D01*
X159392Y106866D01*
X158589Y107026D01*
X157786Y106866D01*
X157105Y106411D01*
X156917Y106131D01*
X154037D01*
X154037Y106131D01*
X153577Y106039D01*
X153186Y105778D01*
X153186Y105778D01*
X153073Y105665D01*
X149994D01*
X142006Y113654D01*
Y118096D01*
X142234Y118249D01*
X142689Y118930D01*
X142849Y119734D01*
X142689Y120537D01*
X142234Y121218D01*
X141553Y121673D01*
X140750Y121833D01*
X140419Y121767D01*
X136395Y125792D01*
X136004Y126053D01*
X135543Y126145D01*
X135543Y126144D01*
X118741D01*
X118280Y126053D01*
X117889Y125792D01*
X112474Y120377D01*
X112213Y119986D01*
X112121Y119525D01*
X112121Y119525D01*
Y117375D01*
X111841Y117188D01*
X111386Y116507D01*
X111226Y115704D01*
X111386Y114900D01*
X111841Y114219D01*
X112522Y113764D01*
X113326Y113604D01*
X114129Y113764D01*
X114810Y114219D01*
X115265Y114900D01*
X115425Y115704D01*
X115265Y116507D01*
X114810Y117188D01*
X114530Y117375D01*
Y119026D01*
X119240Y123736D01*
X135044D01*
X136367Y122413D01*
X136203Y121871D01*
X135967Y121824D01*
X135286Y121369D01*
X134831Y120688D01*
X134671Y119884D01*
X134831Y119081D01*
X135286Y118400D01*
X135566Y118212D01*
Y113433D01*
X135566Y113433D01*
X135658Y112972D01*
X135919Y112581D01*
X137582Y110918D01*
X137517Y110587D01*
X137676Y109784D01*
X138131Y109103D01*
X138812Y108648D01*
X139616Y108488D01*
X139946Y108554D01*
X146250Y102250D01*
X146059Y101788D01*
X69096Y101788D01*
X69076Y101785D01*
X69056Y101787D01*
X68671Y101769D01*
X68613Y101754D01*
X68553D01*
X67796Y101603D01*
X67723Y101573D01*
X67646Y101558D01*
X66933Y101262D01*
X66867Y101218D01*
X66794Y101188D01*
X66152Y100759D01*
X66096Y100704D01*
X66031Y100660D01*
X65485Y100114D01*
X65441Y100048D01*
X65385Y99992D01*
X64956Y99351D01*
X64926Y99277D01*
X64882Y99212D01*
X64587Y98499D01*
X64571Y98421D01*
X64541Y98348D01*
X64390Y97591D01*
Y97532D01*
X64376Y97474D01*
X64357Y97088D01*
X64372Y96991D01*
Y81898D01*
X64350Y81881D01*
X63872Y81717D01*
X60917Y84671D01*
X60911Y84680D01*
X60214Y85377D01*
X59891Y85593D01*
X59760Y85619D01*
Y86206D01*
X60127Y86562D01*
X60680Y86192D01*
X61484Y86032D01*
X62287Y86192D01*
X62968Y86647D01*
X63423Y87328D01*
X63583Y88131D01*
X63423Y88935D01*
X62968Y89616D01*
X62287Y90071D01*
X61484Y90231D01*
X60767Y90088D01*
X60550Y90297D01*
X60437Y90494D01*
X60772Y90995D01*
X60931Y91798D01*
X60772Y92601D01*
X60528Y92966D01*
X60829Y93416D01*
X60971Y93388D01*
X61775Y93547D01*
X62456Y94003D01*
X62911Y94684D01*
X63071Y95487D01*
X62911Y96290D01*
X62456Y96972D01*
X61775Y97427D01*
X61670Y97448D01*
X61602Y97788D01*
X61504Y97935D01*
X61536Y98095D01*
Y99277D01*
X61557Y99657D01*
X61938Y99733D01*
X62261Y99949D01*
X65188Y102876D01*
X121069D01*
X121450Y102952D01*
X121773Y103167D01*
X133006Y114401D01*
X133222Y114724D01*
X133298Y115105D01*
Y116119D01*
X133435Y116325D01*
X133511Y116706D01*
Y119943D01*
X133435Y120324D01*
X133220Y120647D01*
X132660Y121207D01*
X132337Y121423D01*
X132126Y121465D01*
Y122319D01*
X126907D01*
X126539Y122638D01*
X126539Y122638D01*
X126539Y122638D01*
X124071D01*
Y120850D01*
X123571D01*
Y120350D01*
X120602D01*
Y119063D01*
X120921D01*
Y116469D01*
X120921D01*
X121028Y116211D01*
X113360Y108543D01*
X108539D01*
X108272Y109043D01*
X108465Y109332D01*
X108550Y109760D01*
X103900D01*
X103985Y109332D01*
X104178Y109043D01*
X103911Y108543D01*
X99183D01*
X98992Y109005D01*
X104432Y114445D01*
X105168D01*
X105549Y114521D01*
X105872Y114737D01*
X106499Y115364D01*
X106715Y115687D01*
X106791Y116068D01*
Y118530D01*
X106715Y118911D01*
X106499Y119234D01*
X105872Y119861D01*
X105549Y120077D01*
X105405Y120106D01*
Y121681D01*
X100187D01*
X99819Y122000D01*
X99819Y122000D01*
X99819Y122000D01*
X97350D01*
Y120213D01*
X96850D01*
Y119713D01*
X93882D01*
Y118425D01*
X94201D01*
Y116058D01*
X91029Y112885D01*
X79078D01*
X78810Y113385D01*
X78872Y113478D01*
X78948Y113859D01*
Y119048D01*
X78872Y119429D01*
X78656Y119752D01*
X78310Y120098D01*
X77987Y120313D01*
X77606Y120389D01*
X77512D01*
Y120862D01*
X73474D01*
X73106Y121181D01*
X73106Y121181D01*
X73106Y121181D01*
X71228D01*
Y119394D01*
X70728D01*
Y118894D01*
X68350D01*
Y117606D01*
X67904Y117476D01*
X54483D01*
X54102Y117400D01*
X53779Y117184D01*
X49773Y113178D01*
X49311Y113369D01*
Y116634D01*
X49630Y116921D01*
X49630D01*
Y119390D01*
X47842D01*
Y119890D01*
X47343D01*
Y122858D01*
X46055D01*
Y122539D01*
X43461D01*
Y118648D01*
X42161Y117348D01*
X41945Y117025D01*
X41869Y116644D01*
Y113172D01*
X41369Y112905D01*
X40968Y113172D01*
X40541Y113258D01*
Y110932D01*
Y108607D01*
X40968Y108692D01*
X41369Y108960D01*
X41869Y108693D01*
Y104394D01*
X41945Y104013D01*
X42161Y103690D01*
X43016Y102835D01*
X43163Y102615D01*
X45532Y100246D01*
X45855Y100030D01*
X45987Y100004D01*
Y99383D01*
X45987D01*
X46204Y99005D01*
X46033Y98523D01*
X46011Y98515D01*
X45640Y98475D01*
X40593Y103521D01*
X40740Y104257D01*
X40580Y105060D01*
X40125Y105741D01*
X39444Y106196D01*
X38640Y106356D01*
X37837Y106196D01*
X37458Y105943D01*
X36958Y106210D01*
Y110031D01*
X37309Y110330D01*
X37765Y110183D01*
X37801Y110005D01*
X38326Y109218D01*
X39113Y108692D01*
X39541Y108607D01*
Y110932D01*
Y113481D01*
X39374Y113618D01*
Y120119D01*
X42939Y123684D01*
X76819D01*
X81860Y118643D01*
Y118017D01*
X81371Y117690D01*
X80916Y117009D01*
X80756Y116206D01*
X80916Y115402D01*
X81371Y114721D01*
X82052Y114266D01*
X82856Y114107D01*
X83659Y114266D01*
X84340Y114721D01*
X84795Y115402D01*
X84955Y116206D01*
X84795Y117009D01*
X84340Y117690D01*
X83851Y118017D01*
Y119055D01*
X83776Y119436D01*
X83560Y119759D01*
X77935Y125384D01*
X77612Y125600D01*
X77231Y125675D01*
X42527D01*
X42146Y125600D01*
X41823Y125384D01*
X37674Y121236D01*
X37459Y120913D01*
X37383Y120532D01*
Y113284D01*
X35258Y111160D01*
X35043Y110837D01*
X34967Y110456D01*
Y102367D01*
X35043Y101986D01*
X35258Y101663D01*
X35766Y101155D01*
X35701Y100827D01*
X35861Y100023D01*
X36316Y99342D01*
X36997Y98887D01*
X37800Y98727D01*
X38604Y98887D01*
X39285Y99342D01*
X39813Y99314D01*
X40343Y98785D01*
X40178Y98242D01*
X39899Y98187D01*
X39217Y97732D01*
X38762Y97051D01*
X38713Y96804D01*
X38235Y96659D01*
X26684Y108210D01*
Y116867D01*
X26608Y117248D01*
X26392Y117571D01*
X26046Y117917D01*
X25723Y118132D01*
X25342Y118208D01*
X25287D01*
Y118681D01*
X20069D01*
X19701Y119000D01*
X19701Y119000D01*
X19701Y119000D01*
X17232D01*
Y117213D01*
X16732D01*
Y116713D01*
X13764D01*
Y115425D01*
X14083D01*
Y112831D01*
X17974D01*
X20564Y110241D01*
Y108063D01*
X20639Y107682D01*
X20855Y107359D01*
X27949Y100266D01*
X27665Y99842D01*
X25942Y100556D01*
X25890Y100566D01*
X25842Y100590D01*
X23504Y101216D01*
X23451Y101219D01*
X23401Y101236D01*
X21001Y101552D01*
X20962Y101550D01*
X20923Y101559D01*
X19713Y101598D01*
X19700Y101596D01*
X19686Y101599D01*
X15641Y101599D01*
X14655Y101795D01*
X13726Y102180D01*
X12890Y102738D01*
X12179Y103449D01*
X11621Y104285D01*
X11236Y105213D01*
X11040Y106199D01*
X11040Y106702D01*
Y124723D01*
Y125210D01*
X11225Y126168D01*
X11588Y127073D01*
X12115Y127893D01*
X12298Y128084D01*
X12760Y127844D01*
X12760Y127843D01*
X12919Y127040D01*
X13374Y126359D01*
X14056Y125904D01*
X14859Y125744D01*
X15662Y125904D01*
X16343Y126359D01*
X16531Y126639D01*
X23623D01*
X28396Y121866D01*
Y121076D01*
X28077D01*
Y119789D01*
X32046D01*
Y121076D01*
X31727D01*
Y123907D01*
X29762D01*
X24973Y128695D01*
X24582Y128956D01*
X24122Y129048D01*
X24122Y129048D01*
X16686D01*
X16456Y129359D01*
X16641Y129854D01*
X19678Y129994D01*
X23455Y130165D01*
X27232Y130333D01*
X27232Y130333D01*
X31014Y130497D01*
X34797Y130657D01*
X38583Y130814D01*
X42371Y130968D01*
X46160Y131118D01*
X49952Y131264D01*
X53747Y131407D01*
X57543Y131547D01*
X61343Y131683D01*
X61343Y131683D01*
X65143Y131815D01*
X68946Y131944D01*
X68946Y131944D01*
X72750Y132070D01*
X72750D01*
X76557Y132192D01*
X80365Y132310D01*
X84175Y132425D01*
X87987Y132537D01*
X91800Y132644D01*
X95615Y132749D01*
X99430Y132850D01*
X103248Y132947D01*
X107067Y133041D01*
X110889Y133131D01*
X110889Y133131D01*
X114710Y133218D01*
X118533Y133301D01*
X122358Y133381D01*
X126183Y133457D01*
X126183D01*
X130010Y133529D01*
X133838Y133598D01*
X137667Y133664D01*
X141496Y133726D01*
X141496Y133726D01*
X145327Y133784D01*
X149158Y133839D01*
X152990Y133891D01*
X156823Y133939D01*
X160657Y133983D01*
X160657Y133983D01*
X164491Y134023D01*
X168325Y134061D01*
X172161Y134094D01*
X175997Y134125D01*
X175997Y134125D01*
X179833Y134151D01*
X183670Y134174D01*
X187507Y134194D01*
X191343Y134210D01*
X191344Y134210D01*
X195182Y134222D01*
X199019Y134231D01*
X202857Y134236D01*
X206694Y134238D01*
X210532Y134236D01*
D02*
G37*
G36*
X189250Y116732D02*
X189014D01*
X188069Y117677D01*
Y119685D01*
X189250D01*
Y116732D01*
D02*
G37*
G36*
X197124Y117677D02*
X196179Y116732D01*
X195943D01*
Y119685D01*
X197124D01*
Y117677D01*
D02*
G37*
G36*
X297608Y116655D02*
X297372D01*
X296427Y117600D01*
Y119608D01*
X297608D01*
Y116655D01*
D02*
G37*
G36*
X305482Y117600D02*
X304537Y116655D01*
X304301D01*
Y119608D01*
X305482D01*
Y117600D01*
D02*
G37*
G36*
X188462Y116181D02*
Y115945D01*
X185510D01*
Y117126D01*
X187517D01*
X188462Y116181D01*
D02*
G37*
G36*
X199683Y115945D02*
X196730D01*
Y116181D01*
X197675Y117126D01*
X199683D01*
Y115945D01*
D02*
G37*
G36*
X296820Y116104D02*
Y115868D01*
X293868D01*
Y117049D01*
X295875D01*
X296820Y116104D01*
D02*
G37*
G36*
X308041Y115868D02*
X305088D01*
Y116104D01*
X306033Y117049D01*
X308041D01*
Y115868D01*
D02*
G37*
G36*
X374079Y109021D02*
X373135Y108077D01*
X372898D01*
Y111029D01*
X374079D01*
Y109021D01*
D02*
G37*
G36*
X199683Y108071D02*
X197675D01*
X196730Y109016D01*
Y109252D01*
X199683D01*
Y108071D01*
D02*
G37*
G36*
X308041Y107994D02*
X306033D01*
X305088Y108939D01*
Y109175D01*
X308041D01*
Y107994D01*
D02*
G37*
G36*
X365418Y107525D02*
Y107289D01*
X362465D01*
Y108470D01*
X364473D01*
X365418Y107525D01*
D02*
G37*
G36*
X376639Y107289D02*
X373686D01*
Y107525D01*
X374631Y108470D01*
X376639D01*
Y107289D01*
D02*
G37*
G36*
X50408Y106757D02*
X50172D01*
X49227Y107702D01*
Y109710D01*
X50408D01*
Y106757D01*
D02*
G37*
G36*
X58282Y107702D02*
X57337Y106757D01*
X57101D01*
Y109710D01*
X58282D01*
Y107702D01*
D02*
G37*
G36*
X49621Y106206D02*
Y105970D01*
X46668D01*
Y107151D01*
X48676D01*
X49621Y106206D01*
D02*
G37*
G36*
X60841Y105970D02*
X57888D01*
Y106206D01*
X58833Y107150D01*
X60841D01*
Y105970D01*
D02*
G37*
G36*
X189250Y105512D02*
X188069D01*
Y107520D01*
X189014Y108465D01*
X189250D01*
Y105512D01*
D02*
G37*
G36*
X197124Y107520D02*
Y105512D01*
X195943D01*
Y108465D01*
X196179D01*
X197124Y107520D01*
D02*
G37*
G36*
X297608Y105435D02*
X296427D01*
Y107443D01*
X297372Y108388D01*
X297608D01*
Y105435D01*
D02*
G37*
G36*
X305482Y107443D02*
Y105435D01*
X304301D01*
Y108387D01*
X304537D01*
X305482Y107443D01*
D02*
G37*
G36*
X365418Y100360D02*
X364473Y99415D01*
X362465D01*
Y100596D01*
X365418D01*
Y100360D01*
D02*
G37*
G36*
X376639Y99415D02*
X374631D01*
X373686Y100360D01*
Y100596D01*
X376639D01*
Y99415D01*
D02*
G37*
G36*
X49621Y99040D02*
X48676Y98096D01*
X46668D01*
Y99277D01*
X49621D01*
Y99040D01*
D02*
G37*
G36*
X60841Y98095D02*
X58833D01*
X57888Y99040D01*
Y99277D01*
X60841D01*
Y98095D01*
D02*
G37*
G36*
X366206Y96856D02*
X365024D01*
Y98864D01*
X365969Y99809D01*
X366206D01*
Y96856D01*
D02*
G37*
G36*
X374079Y98864D02*
Y96856D01*
X372898D01*
Y99809D01*
X373135D01*
X374079Y98864D01*
D02*
G37*
G36*
X349829Y97640D02*
X349583Y97179D01*
X349311Y97233D01*
X348508Y97073D01*
X347827Y96618D01*
X347372Y95937D01*
X347212Y95133D01*
X347372Y94330D01*
X347827Y93649D01*
X348107Y93462D01*
Y89204D01*
X348107Y89204D01*
X348199Y88743D01*
X348460Y88353D01*
X352065Y84748D01*
X352079Y84509D01*
Y84364D01*
X352091Y84303D01*
X352094Y84260D01*
X352094Y84259D01*
Y82289D01*
X352092D01*
Y77777D01*
X352092D01*
X352098Y77770D01*
X352079Y77671D01*
Y76490D01*
X352132Y76224D01*
X352282Y75999D01*
X352507Y75849D01*
X352717Y75807D01*
Y70582D01*
X352717Y70582D01*
X352808Y70122D01*
X353069Y69731D01*
X353991Y68809D01*
X353991Y68809D01*
X355859Y66941D01*
X355859Y66941D01*
X356250Y66680D01*
X356711Y66588D01*
X356711Y66588D01*
X357311D01*
Y65344D01*
X356992Y64976D01*
X356992Y64976D01*
X356992Y64976D01*
Y62508D01*
X358780D01*
Y61508D01*
X356992D01*
Y59039D01*
X357785D01*
X357937Y58539D01*
X357648Y58347D01*
X357193Y57666D01*
X357033Y56862D01*
X357178Y56135D01*
X357109Y56067D01*
X356848Y55676D01*
X356756Y55215D01*
X356756Y55215D01*
Y54507D01*
X354996D01*
Y52286D01*
X354496D01*
D01*
X354996D01*
Y50066D01*
X356776D01*
Y50385D01*
X359921D01*
Y54188D01*
X359165D01*
Y54716D01*
X359231Y54782D01*
X359936Y54923D01*
X360617Y55378D01*
X361072Y56059D01*
X361232Y56862D01*
X361072Y57666D01*
X360617Y58347D01*
X360329Y58539D01*
X360480Y59039D01*
X360567D01*
Y59358D01*
X363161D01*
Y63250D01*
X363494Y63582D01*
X363956Y63391D01*
Y58199D01*
X361747Y55990D01*
X361486Y55599D01*
X361394Y55138D01*
X361394Y55138D01*
Y44264D01*
X360620D01*
X360252Y44583D01*
X360252Y44583D01*
X360252Y44583D01*
X357784D01*
Y42795D01*
X357283D01*
Y42295D01*
X354315D01*
Y41008D01*
X354634D01*
Y38413D01*
X356670D01*
Y34345D01*
X356670Y34345D01*
X356762Y33885D01*
X357023Y33494D01*
X357256Y33261D01*
X357647Y32999D01*
X358107Y32908D01*
X358107Y32908D01*
X364522D01*
X364522Y32908D01*
X364983Y32999D01*
X365373Y33261D01*
X368912Y36799D01*
X369374Y36608D01*
Y22675D01*
X367076Y20378D01*
X365839D01*
Y20642D01*
X360620D01*
X360252Y20961D01*
X360252Y20961D01*
X360252Y20961D01*
X357784D01*
Y19173D01*
X357283D01*
Y18673D01*
X354315D01*
Y17386D01*
X354634D01*
Y14791D01*
X357087D01*
X357548Y14649D01*
X357639Y14188D01*
X357901Y13797D01*
X358486Y13211D01*
X358486Y13211D01*
X358877Y12950D01*
X359338Y12859D01*
X368353D01*
X368814Y12950D01*
X369204Y13211D01*
X369465Y13602D01*
X369507Y13809D01*
X373934Y18236D01*
X374395Y18044D01*
Y9844D01*
Y8953D01*
X374048Y7207D01*
X373367Y5562D01*
X372377Y4081D01*
X371118Y2822D01*
X369638Y1833D01*
X367992Y1151D01*
X366246Y804D01*
X332497D01*
Y97049D01*
X332493Y97068D01*
X332496Y97088D01*
X332477Y97474D01*
X332463Y97532D01*
Y97591D01*
X332312Y98348D01*
X332282Y98421D01*
X332266Y98499D01*
X332230Y98586D01*
X332654Y98870D01*
X333852Y97671D01*
X334243Y97410D01*
X334704Y97319D01*
X341325D01*
X341512Y97038D01*
X342193Y96583D01*
X342997Y96424D01*
X343800Y96583D01*
X344481Y97038D01*
X344936Y97720D01*
X345096Y98523D01*
X344936Y99326D01*
X344761Y99588D01*
X345029Y100088D01*
X347381D01*
X349829Y97640D01*
D02*
G37*
G36*
X50408Y95536D02*
X49227D01*
Y97544D01*
X50172Y98489D01*
X50408D01*
Y95536D01*
D02*
G37*
G36*
X58282Y97544D02*
Y95536D01*
X57101D01*
Y98489D01*
X57337D01*
X58282Y97544D01*
D02*
G37*
G36*
X48646Y87134D02*
X48410D01*
X47465Y88078D01*
Y90086D01*
X48646D01*
Y87134D01*
D02*
G37*
G36*
X56520Y88078D02*
X55575Y87134D01*
X55339D01*
Y90086D01*
X56520D01*
Y88078D01*
D02*
G37*
G36*
X47858Y86582D02*
Y86346D01*
X44905D01*
Y87527D01*
X46913D01*
X47858Y86582D01*
D02*
G37*
G36*
X59079Y86346D02*
X56126D01*
Y86582D01*
X57071Y87527D01*
X59079D01*
Y86346D01*
D02*
G37*
G36*
X356514Y85152D02*
X356277D01*
X355332Y86096D01*
Y88104D01*
X356514D01*
Y85152D01*
D02*
G37*
G36*
X364387Y86096D02*
X363443Y85151D01*
X363206D01*
Y88104D01*
X364387D01*
Y86096D01*
D02*
G37*
G36*
X355726Y84600D02*
Y84364D01*
X352773D01*
Y85545D01*
X354781D01*
X355726Y84600D01*
D02*
G37*
G36*
X47858Y79417D02*
X46913Y78472D01*
X44905D01*
Y79653D01*
X47858D01*
Y79417D01*
D02*
G37*
G36*
X59079Y78472D02*
X57071D01*
X56126Y79417D01*
Y79653D01*
X59079D01*
Y78472D01*
D02*
G37*
G36*
X355726Y77435D02*
X354781Y76490D01*
X352773D01*
Y77671D01*
X355726D01*
Y77435D01*
D02*
G37*
G36*
X366947Y76490D02*
X364939D01*
X363994Y77435D01*
Y77671D01*
X366947D01*
Y76490D01*
D02*
G37*
G36*
X41676Y80303D02*
X41999Y80087D01*
X42380Y80011D01*
X43845D01*
X44211Y79653D01*
Y78472D01*
X44264Y78206D01*
X44414Y77981D01*
X44640Y77831D01*
X44904Y77778D01*
Y76112D01*
X44404Y75972D01*
X43685Y76452D01*
X43257Y76537D01*
Y74212D01*
Y71887D01*
X43685Y71972D01*
X44404Y72452D01*
X44904Y72312D01*
Y68867D01*
X44987Y68447D01*
X45225Y68092D01*
X45686Y67631D01*
X46041Y67393D01*
X46461Y67310D01*
X50224D01*
X50224Y65344D01*
X49905Y64976D01*
X49905Y64896D01*
Y62508D01*
X51693D01*
Y62008D01*
X52193D01*
Y59039D01*
X52399D01*
X52487Y58876D01*
X52616Y58539D01*
X52470Y57806D01*
X52630Y57002D01*
X53085Y56321D01*
X53766Y55866D01*
X54569Y55706D01*
X55373Y55866D01*
X56054Y56321D01*
X56219Y56569D01*
X56719Y56417D01*
Y47812D01*
X55848Y46941D01*
X53162D01*
X53010Y47441D01*
X53230Y47588D01*
X53685Y48269D01*
X53844Y49072D01*
X53685Y49876D01*
X53230Y50557D01*
X52548Y51012D01*
X51745Y51172D01*
X50942Y51012D01*
X50261Y50557D01*
X49806Y49876D01*
X49646Y49072D01*
X49806Y48269D01*
X50261Y47588D01*
X50480Y47441D01*
X50329Y46941D01*
X50224D01*
Y41642D01*
X49905Y41354D01*
X49905D01*
Y38886D01*
X51693D01*
Y38386D01*
X52193D01*
Y35417D01*
X53480D01*
Y35736D01*
X56075D01*
Y37981D01*
X57511D01*
X57891Y38057D01*
X58214Y38273D01*
X59099Y39157D01*
X59561Y38966D01*
Y21343D01*
X59128Y20910D01*
X58752Y20642D01*
Y20642D01*
X58752Y20642D01*
X53533D01*
X53165Y20961D01*
X53165Y20961D01*
X53165Y20961D01*
X50697D01*
Y19173D01*
X50197D01*
Y18673D01*
X47228D01*
Y17386D01*
X47547D01*
Y14791D01*
X49792D01*
Y14217D01*
X49868Y13836D01*
X50084Y13513D01*
X50429Y13167D01*
X50752Y12951D01*
X51133Y12875D01*
X60313D01*
X60694Y12951D01*
X61017Y13167D01*
X63872Y16021D01*
X64350Y15857D01*
X64372Y15840D01*
Y804D01*
X47142D01*
X45396Y1151D01*
X43751Y1833D01*
X42270Y2822D01*
X41011Y4081D01*
X40022Y5562D01*
X39340Y7207D01*
X38993Y8953D01*
Y9844D01*
X38993Y82279D01*
X39082Y82364D01*
X39105Y82378D01*
X39451Y82528D01*
X41676Y80303D01*
D02*
G37*
G36*
X48646Y75913D02*
X47465D01*
Y77921D01*
X48409Y78866D01*
X48646D01*
Y75913D01*
D02*
G37*
G36*
X56520Y77921D02*
Y75913D01*
X55339D01*
Y78866D01*
X55575D01*
X56520Y77921D01*
D02*
G37*
G36*
X356513Y73931D02*
X355332D01*
Y75939D01*
X356277Y76884D01*
X356513D01*
Y73931D01*
D02*
G37*
G36*
X364387Y75939D02*
Y73931D01*
X363206D01*
Y76884D01*
X363443D01*
X364387Y75939D01*
D02*
G37*
%LPC*%
G36*
X158253Y128219D02*
Y126394D01*
X160078D01*
X159993Y126822D01*
X159467Y127608D01*
X158680Y128134D01*
X158253Y128219D01*
D02*
G37*
G36*
X157253D02*
X156825Y128134D01*
X156038Y127608D01*
X155513Y126822D01*
X155428Y126394D01*
X157253D01*
Y128219D01*
D02*
G37*
G36*
X361068Y127633D02*
Y125808D01*
X362893D01*
X362807Y126236D01*
X362282Y127023D01*
X361495Y127548D01*
X361068Y127633D01*
D02*
G37*
G36*
X360068D02*
X359640Y127548D01*
X358853Y127023D01*
X358328Y126236D01*
X358242Y125808D01*
X360068D01*
Y127633D01*
D02*
G37*
G36*
X160078Y125394D02*
X158253D01*
Y123569D01*
X158680Y123654D01*
X159467Y124179D01*
X159993Y124966D01*
X160078Y125394D01*
D02*
G37*
G36*
X157253D02*
X155428D01*
X155513Y124966D01*
X156038Y124179D01*
X156825Y123654D01*
X157253Y123569D01*
Y125394D01*
D02*
G37*
G36*
X351436Y124994D02*
X349611D01*
X349696Y124566D01*
X350221Y123780D01*
X351008Y123254D01*
X351436Y123169D01*
Y124994D01*
D02*
G37*
G36*
X144748Y126330D02*
X143945Y126170D01*
X143263Y125715D01*
X142808Y125033D01*
X142649Y124230D01*
X142808Y123427D01*
X143263Y122746D01*
X143945Y122291D01*
X144748Y122131D01*
X145551Y122291D01*
X146232Y122746D01*
X146688Y123427D01*
X146847Y124230D01*
X146688Y125033D01*
X146232Y125715D01*
X145551Y126170D01*
X144748Y126330D01*
D02*
G37*
G36*
X229965Y123366D02*
X227496D01*
Y122079D01*
X229965D01*
Y123366D01*
D02*
G37*
G36*
X176516D02*
X174047D01*
Y122079D01*
X176516D01*
Y123366D01*
D02*
G37*
G36*
X256689Y123091D02*
X254221D01*
Y121803D01*
X256689D01*
Y123091D01*
D02*
G37*
G36*
X149791D02*
X147323D01*
Y121803D01*
X149791D01*
Y123091D01*
D02*
G37*
G36*
X63192Y122624D02*
X62389Y122464D01*
X61708Y122009D01*
X61369Y121502D01*
X56285D01*
X55970Y121973D01*
X55289Y122428D01*
X54486Y122588D01*
X53682Y122428D01*
X53001Y121973D01*
X52546Y121292D01*
X52386Y120488D01*
X52546Y119685D01*
X53001Y119004D01*
X53682Y118549D01*
X54486Y118389D01*
X55289Y118549D01*
X55970Y119004D01*
X56309Y119511D01*
X61393D01*
X61708Y119040D01*
X62389Y118585D01*
X63192Y118425D01*
X63996Y118585D01*
X64677Y119040D01*
X65132Y119721D01*
X65292Y120524D01*
X65132Y121327D01*
X64677Y122009D01*
X63996Y122464D01*
X63192Y122624D01*
D02*
G37*
G36*
X283410Y122638D02*
X280941D01*
Y121350D01*
X283410D01*
Y122638D01*
D02*
G37*
G36*
X123071D02*
X120602D01*
Y121350D01*
X123071D01*
Y122638D01*
D02*
G37*
G36*
X96350Y122000D02*
X93882D01*
Y120713D01*
X96350D01*
Y122000D01*
D02*
G37*
G36*
X49630Y122858D02*
X48342D01*
Y120390D01*
X49630D01*
Y122858D01*
D02*
G37*
G36*
X336842Y121181D02*
X334374D01*
Y119894D01*
X336842D01*
Y121181D01*
D02*
G37*
G36*
X70228D02*
X68350D01*
Y119894D01*
X70228D01*
Y121181D01*
D02*
G37*
G36*
X390248Y119000D02*
X387779D01*
Y117713D01*
X390248D01*
Y119000D01*
D02*
G37*
G36*
X16232D02*
X13764D01*
Y117713D01*
X16232D01*
Y119000D01*
D02*
G37*
G36*
X32046Y118789D02*
X30561D01*
Y117501D01*
X32046D01*
Y118789D01*
D02*
G37*
G36*
X29561D02*
X28077D01*
Y117501D01*
X29561D01*
Y118789D01*
D02*
G37*
G36*
X350879Y117401D02*
X349394D01*
Y116113D01*
X350879D01*
Y117401D01*
D02*
G37*
G36*
X241220Y112670D02*
X239735D01*
Y111383D01*
X241220D01*
Y112670D01*
D02*
G37*
G36*
X248281Y112836D02*
X246560D01*
Y111056D01*
X248281D01*
Y112836D01*
D02*
G37*
G36*
X106725Y112585D02*
Y110760D01*
X108550D01*
X108465Y111187D01*
X107939Y111974D01*
X107153Y112500D01*
X106725Y112585D01*
D02*
G37*
G36*
X105725D02*
X105297Y112500D01*
X104511Y111974D01*
X103985Y111187D01*
X103900Y110760D01*
X105725D01*
Y112585D01*
D02*
G37*
G36*
X365115Y111347D02*
X364752Y111105D01*
X364510Y110742D01*
X365024D01*
Y111029D01*
X365115D01*
Y111347D01*
D02*
G37*
G36*
X336902Y108267D02*
Y106442D01*
X338728D01*
X338643Y106870D01*
X338117Y107657D01*
X337330Y108182D01*
X336902Y108267D01*
D02*
G37*
G36*
X352265Y59759D02*
Y57934D01*
X354090D01*
X354005Y58362D01*
X353479Y59149D01*
X352693Y59674D01*
X352265Y59759D01*
D02*
G37*
G36*
X351265D02*
X350837Y59674D01*
X350050Y59149D01*
X349525Y58362D01*
X349440Y57934D01*
X351265D01*
Y59759D01*
D02*
G37*
G36*
X354090Y56934D02*
X352265D01*
Y55109D01*
X352693Y55194D01*
X353479Y55720D01*
X354005Y56506D01*
X354090Y56934D01*
D02*
G37*
G36*
X351265D02*
X349440D01*
X349525Y56506D01*
X350050Y55720D01*
X350837Y55194D01*
X351265Y55109D01*
Y56934D01*
D02*
G37*
G36*
X353996Y54507D02*
X352217D01*
Y52786D01*
X353996D01*
Y54507D01*
D02*
G37*
G36*
Y51786D02*
X352217D01*
Y50066D01*
X353996D01*
Y51786D01*
D02*
G37*
G36*
X356784Y44583D02*
X354315D01*
Y43295D01*
X356784D01*
Y44583D01*
D02*
G37*
G36*
Y20961D02*
X354315D01*
Y19673D01*
X356784D01*
Y20961D01*
D02*
G37*
G36*
X42257Y76537D02*
X41830Y76452D01*
X41043Y75927D01*
X40518Y75140D01*
X40432Y74712D01*
X42257D01*
Y76537D01*
D02*
G37*
G36*
Y73712D02*
X40432D01*
X40518Y73284D01*
X41043Y72498D01*
X41830Y71972D01*
X42257Y71887D01*
Y73712D01*
D02*
G37*
G36*
X51193Y61508D02*
X49905D01*
Y59039D01*
X51193D01*
Y61508D01*
D02*
G37*
G36*
Y37886D02*
X49905D01*
Y35417D01*
X51193D01*
Y37886D01*
D02*
G37*
G36*
X49697Y20961D02*
X47228D01*
Y19673D01*
X49697D01*
Y20961D01*
D02*
G37*
%LPD*%
D10*
X49733Y71015D02*
X50385D01*
X50421Y71051D01*
X54111Y69488D02*
X54213D01*
X54606Y69095D01*
X53650Y69950D02*
Y70366D01*
X54606Y67913D02*
Y69095D01*
X48055Y72692D02*
X49733Y71015D01*
X51083Y73598D02*
Y73799D01*
X50421Y71051D02*
X52965D01*
X53650Y69950D02*
X54111Y69488D01*
X52965Y71051D02*
X53650Y70366D01*
X45693Y79063D02*
X46000Y78756D01*
X48055Y72692D02*
Y76701D01*
X50024Y77685D02*
X50150Y77558D01*
Y74732D02*
Y77558D01*
Y74732D02*
X51083Y73799D01*
X46461Y68405D02*
X51201D01*
X46000Y68867D02*
Y78756D01*
Y68867D02*
X46461Y68405D01*
X53764Y77488D02*
X53961Y77685D01*
X51201Y68405D02*
X51693Y67913D01*
Y67323D02*
Y67913D01*
D27*
X357283Y19173D02*
D03*
Y16260D02*
D03*
X363189D02*
D03*
Y19173D02*
D03*
X357283Y42795D02*
D03*
Y39882D02*
D03*
X363189D02*
D03*
Y42795D02*
D03*
X390748Y117213D02*
D03*
Y114299D02*
D03*
X396654D02*
D03*
Y117213D02*
D03*
X364047Y118394D02*
D03*
Y115480D02*
D03*
X369953D02*
D03*
Y118394D02*
D03*
X337343Y119394D02*
D03*
Y116480D02*
D03*
X343248D02*
D03*
Y119394D02*
D03*
X316535Y117299D02*
D03*
Y120213D02*
D03*
X310630D02*
D03*
Y117299D02*
D03*
X283910Y120850D02*
D03*
Y117937D02*
D03*
X289815D02*
D03*
Y120850D02*
D03*
X257189Y121303D02*
D03*
Y118390D02*
D03*
X263094D02*
D03*
Y121303D02*
D03*
X230465Y121579D02*
D03*
Y118665D02*
D03*
X236370D02*
D03*
Y121579D02*
D03*
X177016D02*
D03*
Y118665D02*
D03*
X182921D02*
D03*
Y121579D02*
D03*
X150291Y121303D02*
D03*
Y118390D02*
D03*
X156197D02*
D03*
Y121303D02*
D03*
X123571Y120850D02*
D03*
Y117937D02*
D03*
X129476D02*
D03*
Y120850D02*
D03*
X96850Y120213D02*
D03*
Y117299D02*
D03*
X102756D02*
D03*
Y120213D02*
D03*
X16732Y117213D02*
D03*
Y114299D02*
D03*
X22638D02*
D03*
Y117213D02*
D03*
X50197Y19173D02*
D03*
Y16260D02*
D03*
X56102D02*
D03*
Y19173D02*
D03*
D28*
X358780Y62008D02*
D03*
X361693D02*
D03*
Y67913D02*
D03*
X358780D02*
D03*
X47842Y119890D02*
D03*
X44929D02*
D03*
Y113984D02*
D03*
X47842D02*
D03*
X51693Y62008D02*
D03*
X54606D02*
D03*
Y67913D02*
D03*
X51693D02*
D03*
Y38386D02*
D03*
X54606D02*
D03*
Y44291D02*
D03*
X51693D02*
D03*
D29*
X47455Y106560D02*
D03*
X49817Y108922D02*
D03*
X49817Y96324D02*
D03*
X47455Y98686D02*
D03*
X60054Y98686D02*
D03*
X57691Y96324D02*
D03*
X57691Y108922D02*
D03*
X60054Y106560D02*
D03*
X373489Y110242D02*
D03*
X375851Y107880D02*
D03*
X363253Y107880D02*
D03*
X365615Y110242D02*
D03*
X365615Y97644D02*
D03*
X363253Y100006D02*
D03*
X375851Y100006D02*
D03*
X373489Y97644D02*
D03*
X366159Y77081D02*
D03*
X363797Y74718D02*
D03*
X363797Y87317D02*
D03*
X366159Y84955D02*
D03*
X353561Y84955D02*
D03*
X355923Y87317D02*
D03*
X355923Y74718D02*
D03*
X353561Y77081D02*
D03*
X294655Y116458D02*
D03*
X297017Y118821D02*
D03*
X297017Y106222D02*
D03*
X294655Y108584D02*
D03*
X307253Y108584D02*
D03*
X304891Y106222D02*
D03*
X304891Y118821D02*
D03*
X307253Y116458D02*
D03*
X186297Y116535D02*
D03*
X188659Y118898D02*
D03*
X188659Y106299D02*
D03*
X186297Y108661D02*
D03*
X198896Y108661D02*
D03*
X196533Y106299D02*
D03*
X196533Y118898D02*
D03*
X198896Y116535D02*
D03*
X58291Y79063D02*
D03*
X55929Y76701D02*
D03*
X55929Y89299D02*
D03*
X58291Y86937D02*
D03*
X45693Y86937D02*
D03*
X48055Y89299D02*
D03*
X48055Y76701D02*
D03*
X45693Y79063D02*
D03*
D30*
X59069Y102623D02*
D03*
X48439D02*
D03*
X354545Y81018D02*
D03*
X365175D02*
D03*
X306269Y112521D02*
D03*
X295639D02*
D03*
X197911Y112598D02*
D03*
X187281D02*
D03*
X46677Y83000D02*
D03*
X57307D02*
D03*
D31*
X53754Y97308D02*
D03*
Y107938D02*
D03*
X55723Y97308D02*
D03*
X51786D02*
D03*
X55723Y107938D02*
D03*
X51786D02*
D03*
X359860Y86333D02*
D03*
Y75703D02*
D03*
X357891Y86333D02*
D03*
X361828D02*
D03*
X357891Y75703D02*
D03*
X361828D02*
D03*
X300954Y107206D02*
D03*
Y117836D02*
D03*
X302923Y107206D02*
D03*
X298986D02*
D03*
X302923Y117836D02*
D03*
X298986D02*
D03*
X192596Y107283D02*
D03*
Y117913D02*
D03*
X194565Y107283D02*
D03*
X190628D02*
D03*
X194565Y117913D02*
D03*
X190628D02*
D03*
X51992Y88315D02*
D03*
Y77685D02*
D03*
X50024Y88315D02*
D03*
X53961D02*
D03*
X50024Y77685D02*
D03*
X53961D02*
D03*
D32*
X58282Y104592D02*
D03*
X58280Y100653D02*
D03*
X49226Y104592D02*
D03*
X49227Y100654D02*
D03*
X355332Y79049D02*
D03*
X355334Y82988D02*
D03*
X364388Y79049D02*
D03*
X364387Y82986D02*
D03*
X305482Y114490D02*
D03*
X305480Y110551D02*
D03*
X296426Y114490D02*
D03*
X296427Y110553D02*
D03*
X197124Y114567D02*
D03*
X197122Y110628D02*
D03*
X188068Y114567D02*
D03*
X188069Y110630D02*
D03*
X47465Y81031D02*
D03*
X47466Y84970D02*
D03*
X56520Y81031D02*
D03*
X56520Y84968D02*
D03*
D33*
X369552Y98628D02*
D03*
Y109258D02*
D03*
D34*
X364237Y103943D02*
D03*
X374867D02*
D03*
X364237Y101974D02*
D03*
Y105911D02*
D03*
X374867Y101974D02*
D03*
Y105911D02*
D03*
D35*
X371520Y99415D02*
D03*
X367582Y99417D02*
D03*
X371520Y108471D02*
D03*
X367583Y108470D02*
D03*
D36*
X324975Y107551D02*
D03*
X329306D02*
D03*
X348667Y104761D02*
D03*
X344337D02*
D03*
X236315Y108418D02*
D03*
X240645D02*
D03*
D37*
X158793Y109861D02*
D03*
X162257D02*
D03*
X354496Y52286D02*
D03*
X357961D02*
D03*
D38*
X355154Y116543D02*
D03*
Y120873D02*
D03*
D39*
X246060Y113336D02*
D03*
Y116800D02*
D03*
D40*
X75453Y119394D02*
D03*
Y116480D02*
D03*
X70728D02*
D03*
Y119394D02*
D03*
X204331Y121669D02*
D03*
Y118756D02*
D03*
X209055D02*
D03*
Y121669D02*
D03*
D41*
X30061Y119289D02*
D03*
Y122438D02*
D03*
X241720Y113170D02*
D03*
Y116320D02*
D03*
X348895Y117901D02*
D03*
Y121050D02*
D03*
D42*
X329589Y121218D02*
X330296Y120511D01*
Y119324D02*
Y120511D01*
Y119324D02*
X331868Y117752D01*
Y117277D02*
Y117752D01*
X293028Y114399D02*
X295198D01*
X292250Y114206D02*
X292835D01*
X293028Y114399D01*
X292142Y114098D02*
X292250Y114206D01*
X281752Y114091D02*
X291867D01*
X285378Y117650D02*
X287154Y115874D01*
X295198Y114399D02*
X295277Y114478D01*
X291867Y114091D02*
X291875Y114098D01*
X292142D01*
X287154Y115874D02*
X291407D01*
X260593Y116315D02*
X274506D01*
X280281Y110539D01*
X364237Y103943D02*
X374867D01*
X52004Y83000D02*
Y88305D01*
X29527Y122438D02*
X30061D01*
X24122Y127843D02*
X29527Y122438D01*
X235780Y121579D02*
X236067Y121291D01*
X237481D01*
X237059Y116591D02*
X237691D01*
X344429Y119394D02*
X345280Y118543D01*
X343248Y119394D02*
X344429D01*
X346492Y115165D02*
Y117796D01*
X340626Y110462D02*
X344581Y114417D01*
X345280Y118543D02*
X345745D01*
X346492Y117796D01*
X345745Y114417D02*
X346492Y115165D01*
X344581Y114417D02*
X345745D01*
X399898Y112984D02*
Y115615D01*
X398685Y116362D02*
X399150D01*
X397986Y112236D02*
X399150D01*
X396654Y117213D02*
X397835D01*
X391661Y105911D02*
X397986Y112236D01*
X399150Y116362D02*
X399898Y115615D01*
X399150Y112236D02*
X399898Y112984D01*
X397835Y117213D02*
X398685Y116362D01*
X372611Y117543D02*
X372611D01*
X371134Y118394D02*
X371421Y118106D01*
X371987D01*
X372068Y118087D02*
X372611Y117543D01*
X371987Y118106D02*
X372007Y118087D01*
X373197Y114165D02*
Y116957D01*
X372007Y118087D02*
X372068D01*
X372611Y117543D02*
X373197Y116957D01*
X372108Y113417D02*
X372450D01*
X371522Y108469D02*
Y112831D01*
X372108Y113417D01*
X372450D02*
X373197Y114165D01*
X361919Y73414D02*
X362810Y72524D01*
X363575D02*
X365160Y70938D01*
X361919Y73414D02*
Y75612D01*
X365160Y57700D02*
Y70938D01*
X362810Y72524D02*
X363575D01*
X364370Y39882D02*
X366442D01*
X367027Y40468D01*
Y72170D01*
X363827Y75370D02*
X364138Y75059D01*
X367027Y72170D01*
X362598Y55138D02*
X365160Y57700D01*
X365677Y77135D02*
X368803Y74009D01*
X368067Y79048D02*
X370579Y76536D01*
X367625Y16260D02*
X372354Y20989D01*
X368671Y81018D02*
X372354Y77334D01*
X367575Y19173D02*
X370579Y22176D01*
X364522Y34112D02*
X368803Y38393D01*
Y74009D01*
X372354Y20989D02*
Y77334D01*
X370579Y22176D02*
Y76536D01*
X352697Y109557D02*
Y118732D01*
X350884Y107744D02*
X352697Y109557D01*
X355154Y113840D02*
X356743Y112250D01*
X355154Y113840D02*
Y116543D01*
X356743Y112250D02*
X358718D01*
X354473Y119995D02*
X355063Y120585D01*
X352697Y118732D02*
X353960Y119995D01*
X355063Y120585D02*
Y120640D01*
X353960Y119995D02*
X354473D01*
X356056Y120916D02*
X359285D01*
X355580Y120659D02*
X356091D01*
X38881Y128348D02*
X95313D01*
X355791Y120630D02*
X355988Y120827D01*
X359285Y120916D02*
X359328Y120960D01*
X355580Y120578D02*
X355917Y120916D01*
X355589Y120916D02*
X359285D01*
X363253Y94980D02*
Y100006D01*
X366664Y93591D02*
Y95381D01*
X361931Y88633D02*
X362985Y89687D01*
X365638Y92090D02*
Y92565D01*
X362985Y94712D02*
X363253Y94980D01*
X362985Y89687D02*
Y94712D01*
X365638Y92565D02*
X366664Y93591D01*
X365615Y96430D02*
X366664Y95381D01*
X361931Y85617D02*
Y88633D01*
X51994Y88315D02*
X53961D01*
X51992D02*
X51994D01*
X241720Y112864D02*
X242191Y113336D01*
X198896Y116535D02*
Y122612D01*
X200028Y123744D01*
X206390D01*
X199038Y125531D02*
X206982D01*
X198315Y127319D02*
X207723D01*
X194565Y117913D02*
Y123569D01*
X196533Y123026D02*
X199038Y125531D01*
X196533Y118898D02*
Y123026D01*
X194565Y123569D02*
X198315Y127319D01*
X195602Y104049D02*
X219201D01*
X220079Y104927D01*
X199957Y107600D02*
X216964D01*
X202099Y111151D02*
X215493D01*
X216964Y107600D02*
X218720Y109356D01*
X201363Y109375D02*
X216229D01*
X216513Y114682D02*
X224884D01*
X217984Y111131D02*
X223413D01*
X197008Y105824D02*
X217699D01*
X220079Y104927D02*
X220554D01*
X215493Y111151D02*
X217249Y112907D01*
X217699Y105824D02*
X219455Y107580D01*
X217249Y112907D02*
X224148D01*
X219455Y107580D02*
X221942D01*
X218720Y109356D02*
X222693D01*
X202834Y112926D02*
X214757D01*
X216229Y109375D02*
X217984Y111131D01*
X214757Y112926D02*
X216513Y114682D01*
X221942Y107580D02*
X224117Y105404D01*
X224884Y114682D02*
X224999Y114567D01*
X226366D01*
X223413Y111131D02*
X223528Y111016D01*
X224117Y105404D02*
X230885D01*
X224148Y112907D02*
X224264Y112791D01*
X229315D01*
X222693Y109356D02*
X223631Y108418D01*
X223528Y111016D02*
X230067D01*
X201296Y114465D02*
X202834Y112926D01*
X199669Y114465D02*
X201296D01*
X199657Y114476D02*
X199669Y114465D01*
X197124Y114567D02*
X197214Y114476D01*
X199657D01*
X200756Y112494D02*
X202099Y111151D01*
X198002Y112508D02*
X199657D01*
X199670Y112494D02*
X200756D01*
X198896Y108661D02*
X199957Y107600D01*
X197911Y112598D02*
X198002Y112508D01*
X194303Y102273D02*
X238947D01*
X200201Y110538D02*
X201363Y109375D01*
X199657Y112508D02*
X199670Y112494D01*
X197213Y110538D02*
X200201D01*
X197122Y110628D02*
X197213Y110538D01*
X196533Y106299D02*
X197008Y105824D01*
X194655Y104995D02*
X195602Y104049D01*
X194655Y104995D02*
Y107193D01*
X358718Y112250D02*
X359054Y111915D01*
X276721Y108221D02*
X278720Y106222D01*
X297017D01*
X281017Y112315D02*
X292642D01*
X284787Y117650D02*
X285378D01*
X284500Y117937D02*
X284787Y117650D01*
X274359Y121484D02*
X281752Y114091D01*
X292642Y112315D02*
X292758Y112431D01*
X294411D01*
X280281Y110539D02*
X295276D01*
X274942Y118390D02*
X281017Y112315D01*
X298895Y104918D02*
Y107116D01*
X276103Y106328D02*
X278679Y103752D01*
X297729D02*
X298895Y104918D01*
X278679Y103752D02*
X297729D01*
X270083Y109557D02*
X273312Y106328D01*
X258533Y111408D02*
X260384Y109557D01*
X270083D01*
X253928Y111603D02*
X258195Y107336D01*
X268551D01*
X252297Y109052D02*
X255929Y105420D01*
X266480D01*
X269604Y102297D01*
X251274Y110570D02*
Y111045D01*
X251289Y115411D02*
X253928Y112772D01*
X252297Y109052D02*
Y109547D01*
X251274Y110570D02*
X252297Y109547D01*
X253928Y111603D02*
Y112772D01*
X154305Y109708D02*
X158640D01*
X158793Y109861D01*
X154153Y109556D02*
X154305Y109708D01*
X165878Y106299D02*
X188659D01*
X162316Y109861D02*
X165878Y106299D01*
X149495Y104461D02*
X153572D01*
X154037Y104927D02*
X158589D01*
X153572Y104461D02*
X154037Y104927D01*
X147930Y102273D02*
X187815D01*
X359415Y105226D02*
X359890D01*
X360575Y105911D02*
X364237D01*
X357543Y107880D02*
X363253D01*
X359890Y105226D02*
X360575Y105911D01*
X356762Y107098D02*
X357543Y107880D01*
X359650Y104364D02*
Y105167D01*
X356762Y103868D02*
Y107098D01*
X355088Y102195D02*
X356762Y103868D01*
X355088Y101720D02*
Y102195D01*
X357891Y96560D02*
X358477Y97145D01*
X357891Y86333D02*
Y96560D01*
X358477Y97145D02*
X360557D01*
X360589Y97177D01*
X359036Y101224D02*
X359282D01*
X360500Y100006D02*
X363253D01*
X359282Y101224D02*
X360500Y100006D01*
X364783Y88128D02*
X367258D01*
X363797Y87317D02*
X363971D01*
X364783Y88128D01*
X367258D02*
X367594Y88464D01*
X365615Y96430D02*
Y97644D01*
X352129Y91111D02*
Y97043D01*
X347880Y101292D02*
X352129Y97043D01*
Y91111D02*
X355923Y87317D01*
X349311Y89204D02*
Y95133D01*
Y89204D02*
X353561Y84955D01*
X359860Y75703D02*
Y81016D01*
X355923Y73505D02*
Y74718D01*
X356772Y72655D02*
X356809D01*
X355923Y73505D02*
X356772Y72655D01*
X354108Y106479D02*
X354583D01*
X353633D02*
X354108D01*
X262504Y118390D02*
X274942D01*
X262685Y121484D02*
X274359D01*
X298895Y107116D02*
X298986Y107206D01*
X272836Y110557D02*
X275171Y108221D01*
X276721D01*
X273312Y106328D02*
X276103D01*
X274528Y103675D02*
X275003D01*
X273150Y102297D02*
X274528Y103675D01*
X269604Y102297D02*
X273150D01*
X268551Y107336D02*
X270766Y105121D01*
X303013Y104918D02*
X304824Y103107D01*
X330119D02*
X334704Y98523D01*
X304824Y103107D02*
X330119D01*
X331379Y106870D02*
X335181Y103068D01*
X306019Y105094D02*
X330644D01*
X334446Y101292D01*
X329987Y106870D02*
X331379D01*
X334446Y101292D02*
X347880D01*
X334704Y98523D02*
X342997D01*
X335181Y103068D02*
X343014D01*
X329306Y107551D02*
X329987Y106870D01*
X304891Y106222D02*
X306019Y105094D01*
X355868Y120737D02*
Y128850D01*
X308287Y107551D02*
X324097D01*
X324124Y107524D01*
X307253Y108584D02*
X308287Y107551D01*
X324124Y106896D02*
Y107524D01*
X305573Y110462D02*
X340626D01*
X338018Y112431D02*
X342067Y116480D01*
X306360Y112431D02*
X338018D01*
X305572Y114399D02*
X335852D01*
X337055Y115602D01*
X347880Y101292D02*
X348667Y102079D01*
Y104761D01*
X303013Y104918D02*
Y107116D01*
X302923Y107206D02*
X303013Y107116D01*
X343014Y103068D02*
X343756Y103810D01*
X305483Y110553D02*
X305573Y110462D01*
X298986Y107206D02*
X300954D01*
X337055Y116193D02*
X337343Y116480D01*
X337055Y115602D02*
Y116193D01*
X337343Y116480D02*
X337933D01*
X300954Y117836D02*
X300954Y117836D01*
X300954Y112520D02*
Y117836D01*
X300953Y112520D02*
X300954Y112520D01*
X139616Y110587D02*
X147930Y102273D01*
X187815D02*
X190537Y104995D01*
Y107193D01*
X190628Y107283D01*
X192599Y112601D02*
Y117911D01*
X192596Y117913D02*
X192599Y117911D01*
Y112601D02*
X192601Y112598D01*
X140801Y113155D02*
X149495Y104461D01*
X162257Y109861D02*
X162316D01*
X167547Y116315D02*
X173286Y110576D01*
X188015D01*
X188069Y110630D01*
X173791Y112598D02*
X187281D01*
X175358Y114567D02*
X188068D01*
X168000Y118390D02*
X173791Y112598D01*
X168622Y121303D02*
X175358Y114567D01*
X178484Y118378D02*
X180339Y116523D01*
X186285D01*
X229315Y112791D02*
X235189Y118665D01*
X230067Y111016D02*
X234126Y115075D01*
X238947Y102273D02*
X240645Y103972D01*
X226366Y114567D02*
X230465Y118665D01*
X192596Y103979D02*
X194303Y102273D01*
X194565Y107283D02*
X194655Y107193D01*
X192596Y103979D02*
Y107283D01*
X223631Y108418D02*
X236315D01*
X240645Y103972D02*
Y108418D01*
Y103972D02*
X246614D01*
X204873Y118756D02*
X205161Y118468D01*
X212897Y116713D02*
X213508Y117324D01*
X205779Y116681D02*
X210966D01*
X210999Y116713D01*
X213508Y117324D02*
Y126117D01*
X204331Y118756D02*
X204873D01*
X205161Y117299D02*
X205779Y116681D01*
X210999Y116713D02*
X212897D01*
X205161Y117299D02*
Y118468D01*
X246614Y103972D02*
X247003Y104361D01*
X190537Y119185D02*
Y120202D01*
X189160Y121579D02*
X190537Y120202D01*
Y119185D02*
X190643Y119080D01*
X182331Y121579D02*
X189160D01*
X182331Y118665D02*
X182475Y118810D01*
X188572D01*
X188659Y118898D01*
X186285Y116523D02*
X186297Y116535D01*
X140801Y113155D02*
Y119734D01*
X46139Y98788D02*
X47353D01*
X42296Y102632D02*
X46139Y98788D01*
X41294Y103744D02*
X42296Y102741D01*
Y102632D02*
Y102741D01*
X41294Y103744D02*
Y106354D01*
X356085Y120533D02*
Y120728D01*
X40093Y107554D02*
X41294Y106354D01*
X40093Y107554D02*
Y110880D01*
X40041Y110932D02*
X40093Y110880D01*
X47353Y98788D02*
X47455Y98686D01*
X53754Y102623D02*
Y107938D01*
Y97308D02*
Y102623D01*
X113326Y119525D02*
X118741Y124940D01*
X135543D01*
X96850Y117299D02*
X97441D01*
X144412Y123894D02*
X144748Y124230D01*
X136771Y113433D02*
Y119884D01*
Y113433D02*
X139616Y110587D01*
X135543Y124940D02*
X140750Y119734D01*
X150882Y118390D02*
X151169Y118102D01*
X150882Y121303D02*
X151472D01*
X151169Y118102D02*
X152355D01*
X152941Y117517D01*
X113326Y115704D02*
Y119525D01*
X243562Y116800D02*
X246060D01*
X242397D02*
X243562D01*
X241917Y116320D02*
X242397Y116800D01*
X242191Y113336D02*
X246060D01*
X243562Y116800D02*
Y122375D01*
X241720Y116320D02*
X241917D01*
X259253Y118102D02*
X259839Y117517D01*
X258067Y118102D02*
X259253D01*
X257780Y118390D02*
X258067Y118102D01*
X259839Y117069D02*
X260593Y116315D01*
X259839Y117069D02*
Y117517D01*
X364146Y102065D02*
X364237Y101974D01*
X361949Y102065D02*
X364146D01*
X359650Y104364D02*
X361949Y102065D01*
X344337Y104761D02*
X344533D01*
X351914D02*
X353633Y106479D01*
X346002Y106229D02*
Y106475D01*
X344533Y104761D02*
X346002Y106229D01*
X347271Y107744D02*
X350884D01*
X348667Y104761D02*
X351914D01*
X346002Y106475D02*
X347271Y107744D01*
X390748Y114299D02*
X391339D01*
X395472D02*
X396063D01*
X386691Y110242D02*
X390748Y114299D01*
X389053Y107880D02*
X395472Y114299D01*
X373489Y110242D02*
X386691D01*
X375851Y107880D02*
X389053D01*
X367583Y108470D02*
Y113125D01*
X364350Y115193D02*
X364638Y115480D01*
X365228D02*
X367583Y113125D01*
X364638Y115480D02*
X365228D01*
X368772D02*
X369362D01*
X369461Y115381D01*
Y109348D02*
Y115381D01*
Y109348D02*
X369552Y109258D01*
X207723Y127319D02*
X207724Y127318D01*
X235189Y118665D02*
X235780D01*
X230465D02*
X231055D01*
X234126Y115075D02*
X235543D01*
X237059Y116591D01*
X211720Y120349D02*
Y124426D01*
X212307Y127318D02*
X213508Y126117D01*
X210616Y125531D02*
X211720Y124426D01*
X207724Y127318D02*
X212307D01*
X206983Y125531D02*
X210616D01*
X206390Y123744D02*
X208177Y121957D01*
X206982Y125531D02*
X206983Y125531D01*
X209933Y119043D02*
X210484Y119595D01*
X210966D01*
X208768Y121957D02*
X209055Y121669D01*
X208177Y121957D02*
X208768D01*
X209055Y118756D02*
X209343Y119043D01*
X210966Y119595D02*
X211720Y120349D01*
X209343Y119043D02*
X209933D01*
X357982Y74458D02*
Y75612D01*
X353921Y76699D02*
X354393Y77171D01*
X359860Y81016D02*
Y86333D01*
X361405Y67610D02*
Y68767D01*
X361386Y68787D02*
X361405Y68767D01*
X361386Y68787D02*
Y69088D01*
X351485Y57714D02*
X351765Y57434D01*
X361828Y75703D02*
X361919Y75612D01*
X361405Y67610D02*
X361693Y67323D01*
X358492Y67793D02*
X358780Y67505D01*
X359133Y56387D02*
Y56862D01*
X358780Y67323D02*
Y67505D01*
X354842Y69661D02*
X356711Y67793D01*
X357891Y75703D02*
X357982Y75612D01*
X353921Y70582D02*
Y76699D01*
X354842Y69661D02*
Y69661D01*
X353921Y70582D02*
X354842Y69661D01*
X356711Y67793D02*
X358492D01*
X263580Y126208D02*
X263646Y126274D01*
X355282Y129435D02*
X355868Y128850D01*
X345627Y123503D02*
X345963Y123168D01*
X152663Y131512D02*
X226677D01*
X155727Y125558D02*
X157417D01*
X151472Y121303D02*
X155727Y125558D01*
X151986Y130835D02*
X152663Y131512D01*
X97800Y130835D02*
X144846D01*
X95313Y128348D02*
X97800Y130835D01*
X157417Y125558D02*
X157753Y125894D01*
X144846Y130835D02*
X151986D01*
X14859Y127843D02*
X24122D01*
X226677Y131512D02*
X227270Y130919D01*
X263646D02*
X314447D01*
X329427Y129435D02*
X332829D01*
X328236Y130626D02*
X329427Y129435D01*
X314740Y130626D02*
X328236D01*
X332829Y127588D02*
X332977Y127440D01*
X314447Y130919D02*
X314740Y130626D01*
X332829Y129435D02*
X355282D01*
X332829Y127588D02*
Y129435D01*
X263646Y126274D02*
Y130919D01*
X359338Y14063D02*
X368353D01*
X227270Y130919D02*
X263646D01*
X374867Y105911D02*
X391661D01*
X358752Y14649D02*
X359338Y14063D01*
X358752Y14649D02*
Y15972D01*
X358465Y16260D02*
X358752Y15972D01*
X36841Y126307D02*
X38881Y128348D01*
X306269Y112521D02*
X306360Y112431D01*
X298310Y120895D02*
X298895Y120310D01*
Y117927D02*
Y120310D01*
X289224Y120850D02*
X294213D01*
X291816Y117937D02*
X292340Y118460D01*
X294213Y120850D02*
X294258Y120895D01*
X292340Y118460D02*
X296695D01*
X294258Y120895D02*
X298310D01*
X289224Y117937D02*
X291816D01*
X298895Y117927D02*
X298986Y117836D01*
X296695Y118460D02*
X296987Y118169D01*
X348698Y121050D02*
X348895D01*
X346581Y123168D02*
X348698Y121050D01*
X345963Y123168D02*
X346581D01*
X324611Y121218D02*
X329589D01*
X342067Y116480D02*
X342657D01*
X307090Y120213D02*
X311221D01*
X294411Y112431D02*
X294488Y112508D01*
X305482Y118604D02*
X307090Y120213D01*
X305106Y118502D02*
X305208Y118604D01*
X305482Y114490D02*
X305572Y114399D01*
X305208Y118604D02*
X305482D01*
X52004Y77695D02*
Y82873D01*
X51994Y77685D02*
X52004Y77695D01*
X51994Y88315D02*
X52004Y88305D01*
X153695Y116315D02*
X167547D01*
X177606Y118665D02*
X177894Y118378D01*
X152941Y117069D02*
Y117517D01*
X155606Y118390D02*
X168000D01*
X152941Y117069D02*
X153695Y116315D01*
X177894Y118378D02*
X178484D01*
X155606Y121303D02*
X168622D01*
X357961Y55215D02*
X359133Y56387D01*
X357961Y52286D02*
Y55215D01*
X362598Y42795D02*
Y55138D01*
X365175Y81018D02*
X368671D01*
X364386Y79048D02*
X368067D01*
X364387Y82986D02*
X369230D01*
X362598Y19173D02*
X367575D01*
X362598Y16260D02*
X367625D01*
X357874Y34345D02*
X358107Y34112D01*
X364522D01*
X357874Y34345D02*
Y39882D01*
D43*
X292281Y115874D02*
X292812Y116405D01*
X291407Y115874D02*
X292281D01*
X292812Y116405D02*
X294655D01*
X295137D01*
X132302Y115105D02*
Y116492D01*
X128886Y120850D02*
X129234Y120503D01*
X131956D02*
X132516Y119943D01*
X121069Y103871D02*
X132302Y115105D01*
Y116492D02*
X132516Y116706D01*
X129234Y120503D02*
X131956D01*
X132516Y116706D02*
Y119943D01*
X105795Y116068D02*
Y118530D01*
X104429Y119503D02*
X104775Y119158D01*
X104429Y119503D02*
Y119720D01*
X103937Y120213D02*
X104429Y119720D01*
X102756Y120213D02*
X103937D01*
X104020Y115441D02*
X105168D01*
Y119158D02*
X105795Y118530D01*
X105168Y115441D02*
X105795Y116068D01*
X97492Y108914D02*
X104020Y115441D01*
X104775Y119158D02*
X105168D01*
X25688Y107798D02*
X39604Y93883D01*
X25342Y117213D02*
X25688Y116867D01*
X22047Y117213D02*
X25342D01*
X25688Y107798D02*
Y116867D01*
X51719Y49046D02*
X51745Y49072D01*
X51693Y43701D02*
X51719Y43727D01*
Y49046D01*
X35962Y110456D02*
X38378Y112872D01*
Y120532D02*
X42527Y124680D01*
X38378Y112872D02*
Y120532D01*
X42527Y124680D02*
X77231D01*
X82856Y119055D01*
X237691Y116591D02*
X238566D01*
X239409Y117434D01*
X237691Y121081D02*
X238224D01*
X239409Y119896D01*
Y117434D02*
Y119896D01*
X363589Y65085D02*
Y70287D01*
X360638Y69933D02*
X360984Y69587D01*
X361201D01*
X361386Y69402D01*
Y69088D02*
Y69402D01*
X362924Y70953D02*
X363589Y70287D01*
X356809Y72655D02*
X357099D01*
X359469Y71494D02*
X360638Y70325D01*
X362159Y70953D02*
X362924D01*
X358187Y73499D02*
Y74253D01*
X360252Y72860D02*
X362159Y70953D01*
X357099Y72655D02*
X358260Y71494D01*
X360638Y69933D02*
Y70325D01*
X358260Y71494D02*
X359469D01*
X358187Y73499D02*
X358826Y72860D01*
X360252D01*
X373925Y19649D02*
Y78291D01*
X369230Y82986D02*
X373925Y78291D01*
X361693Y63189D02*
X363589Y65085D01*
X373911Y19635D02*
X373925Y19649D01*
X63289Y16846D02*
Y80892D01*
X51133Y13871D02*
X60313D01*
X63289Y16846D01*
X45112Y89299D02*
X48055D01*
X44766Y89645D02*
Y91975D01*
Y89645D02*
X45112Y89299D01*
X42754Y89079D02*
X43901Y87933D01*
X54692Y93419D02*
X55723Y94450D01*
Y97308D01*
X54692Y92833D02*
Y93419D01*
X58418Y92212D02*
X58832Y91798D01*
X58418Y92212D02*
Y93886D01*
X57691Y94612D02*
X58418Y93886D01*
X57691Y94612D02*
Y96324D01*
X38219Y89263D02*
Y89759D01*
Y89263D02*
X38291Y89190D01*
X39585Y89828D02*
Y90325D01*
Y89828D02*
X39657Y89756D01*
X40951Y90394D02*
X41023Y90322D01*
X40630Y91212D02*
X40951Y90891D01*
X42317Y90960D02*
Y91809D01*
X42754Y89079D02*
Y90523D01*
X38291Y88688D02*
Y89190D01*
X39264Y90646D02*
X39585Y90325D01*
X39657Y89254D02*
Y89756D01*
X42317Y90960D02*
X42754Y90523D01*
X41672Y92454D02*
X42317Y91809D01*
X40951Y90394D02*
Y90891D01*
X41023Y89820D02*
Y90322D01*
X37898Y90080D02*
X38219Y89759D01*
X41023Y89820D02*
X41388Y89455D01*
X39657Y89254D02*
X40022Y88889D01*
X38291Y88688D02*
X38656Y88323D01*
X48349Y91157D02*
X49089D01*
X48004Y91503D02*
X48349Y91157D01*
X48004Y91503D02*
Y95111D01*
X45658Y95658D02*
X47456D01*
X45465Y95851D02*
X45658Y95658D01*
X44684Y95851D02*
X45465D01*
X47456Y95658D02*
X48004Y95111D01*
X46224Y97025D02*
X49117D01*
X46031Y97218D02*
X46224Y97025D01*
X40970Y93585D02*
X41672Y92883D01*
X37898Y90080D02*
Y90432D01*
X37384Y90945D02*
X37898Y90432D01*
X41672Y92454D02*
Y92883D01*
X39264Y90646D02*
Y90998D01*
X38750Y91511D02*
Y91940D01*
X39604Y93019D02*
X40306Y92317D01*
X37384Y90945D02*
Y91374D01*
X38750Y91511D02*
X39264Y90998D01*
X40630Y91212D02*
Y91564D01*
X40306Y91888D02*
Y92317D01*
X38237Y92453D02*
X38750Y91940D01*
X40306Y91888D02*
X40630Y91564D01*
X36871Y91887D02*
X37384Y91374D01*
X55723Y97308D02*
X55753Y97278D01*
X60682Y95776D02*
Y97407D01*
Y95776D02*
X60971Y95487D01*
X60054Y98036D02*
X60682Y97407D01*
X60054Y98036D02*
Y98686D01*
X58537Y88813D02*
X59308D01*
X59575Y88546D01*
X58051Y89299D02*
X58537Y88813D01*
X55929Y89299D02*
X58051D01*
X59575Y88546D02*
X61069D01*
X61484Y88131D01*
X368353Y14063D02*
X373911Y19621D01*
X54504Y120506D02*
X63174D01*
X63192Y120524D01*
X54486Y120488D02*
X54504Y120506D01*
X64742Y105770D02*
X116718D01*
X64776Y103871D02*
X121069D01*
X92865Y108914D02*
X97492D01*
X61684Y110303D02*
X94579D01*
X64442Y107547D02*
X113772D01*
X94579Y110303D02*
X101575Y117299D01*
X61557Y100653D02*
X64776Y103871D01*
X61595Y102623D02*
X64742Y105770D01*
X116718D02*
X127803Y116854D01*
X128295Y117937D02*
X128886D01*
X127803Y116854D02*
Y117445D01*
X128295Y117937D01*
X123079Y116854D02*
Y117445D01*
X123571Y117937D01*
X124161D01*
X113772Y107547D02*
X123079Y116854D01*
X62942Y84701D02*
X62994Y84650D01*
X61451Y84701D02*
X62942D01*
X59163Y86937D02*
X59470Y86630D01*
X59522D02*
X61451Y84701D01*
X58291Y86937D02*
X59163D01*
X59470Y86630D02*
X59522D01*
X59510Y84673D02*
X60207Y83976D01*
X57602Y82704D02*
X59544D01*
X61923Y80326D01*
Y18336D02*
Y80326D01*
X60207Y83973D02*
Y83976D01*
Y83973D02*
X63289Y80892D01*
X56815Y84673D02*
X59510D01*
X59581Y80736D02*
X60557Y79760D01*
X56816Y80736D02*
X59581D01*
X56520Y81031D02*
X56816Y80736D01*
X57307Y83000D02*
X57602Y82704D01*
X60557Y20931D02*
Y79760D01*
X56520Y84968D02*
X56815Y84673D01*
X49089Y91157D02*
X49717Y90530D01*
Y90137D02*
Y90530D01*
Y90137D02*
X49728Y90125D01*
Y88610D02*
X50024Y88315D01*
X49728Y88610D02*
Y90125D01*
X43901Y87933D02*
X44992D01*
X40022Y87601D02*
X40569Y87054D01*
Y84750D02*
Y87054D01*
X44992Y87933D02*
X45693Y87232D01*
X41388Y88167D02*
X41935Y87620D01*
X45693Y86937D02*
Y87232D01*
X41388Y88167D02*
Y89455D01*
X38656Y87035D02*
X39203Y86488D01*
X41935Y85316D02*
Y87620D01*
X38656Y87035D02*
Y88323D01*
X40022Y87601D02*
Y88889D01*
X39203Y84184D02*
Y86488D01*
X40970Y93585D02*
Y95979D01*
X40702Y96247D02*
X40970Y95979D01*
X38640Y104066D02*
X45489Y97218D01*
X43867Y103319D02*
X46236Y100950D01*
X40064Y100471D02*
X44684Y95851D01*
X45489Y97218D02*
X46031D01*
X46236Y100950D02*
X48932D01*
X39604Y93019D02*
Y93883D01*
X22925Y108629D02*
X38237Y93317D01*
X21559Y108063D02*
X36871Y92751D01*
Y91887D02*
Y92751D01*
X38237Y92453D02*
Y93317D01*
X37733Y100586D02*
X37848Y100471D01*
X37502Y100827D02*
X37800D01*
X35962Y102367D02*
X37502Y100827D01*
X37848Y100471D02*
X40064D01*
X46236Y104887D02*
X48931D01*
X42865Y104394D02*
X43867Y103392D01*
X44231Y104960D02*
Y106175D01*
Y104960D02*
X45233Y103958D01*
X43867Y103319D02*
Y103392D01*
X45233Y103920D02*
Y103958D01*
Y103920D02*
X46235Y102918D01*
X45597Y105526D02*
Y109526D01*
X38640Y104066D02*
Y104257D01*
X42865Y104394D02*
Y105609D01*
X45597Y105526D02*
X46236Y104887D01*
X46235Y102918D02*
X48144D01*
X22925Y108629D02*
Y114012D01*
X21559Y108063D02*
Y110654D01*
X35962Y102367D02*
Y110456D01*
X49117Y97025D02*
X49817Y96324D01*
X44231Y106175D02*
Y110092D01*
X42865Y105609D02*
Y116644D01*
X44231Y110092D02*
X44929Y110790D01*
X45597Y109526D02*
X47842Y111772D01*
X42865Y116644D02*
X44929Y118709D01*
X41935Y85316D02*
X42281Y84970D01*
X47466D01*
X42320Y83000D02*
X46677D01*
X40569Y84750D02*
X42320Y83000D01*
X42380Y81007D02*
X47440D01*
X39203Y84184D02*
X42380Y81007D01*
X48932Y100950D02*
X49227Y100654D01*
X48144Y102918D02*
X48439Y102623D01*
X48931Y104887D02*
X49226Y104592D01*
X47419Y106596D02*
Y109417D01*
X49817Y109846D02*
X54593Y114622D01*
X72550D01*
X55196Y113256D02*
X77350D01*
X52081Y110141D02*
X55196Y113256D01*
X49817Y108922D02*
Y109846D01*
X52081Y108233D02*
Y110141D01*
X51786Y107938D02*
X52081Y108233D01*
X54483Y116480D02*
X70728D01*
X47419Y109417D02*
X54483Y116480D01*
X57767Y111890D02*
X91441D01*
X56018Y110141D02*
X57767Y111890D01*
X56018Y108233D02*
Y110141D01*
X55723Y107938D02*
X56018Y108233D01*
X57691Y108922D02*
X60303D01*
X61684Y110303D01*
X60054Y106560D02*
X62431Y108937D01*
X92842D01*
X58282Y104592D02*
X61485D01*
X59069Y102623D02*
X61595D01*
X58280Y100653D02*
X61557D01*
X91441Y111890D02*
X96850Y117299D01*
X77350Y113256D02*
X77952Y113859D01*
X72550Y114622D02*
X73177Y115249D01*
X77952Y113859D02*
Y119048D01*
X61485Y104592D02*
X64442Y107547D01*
X47440Y81007D02*
X47465Y81031D01*
X55266Y73079D02*
Y73665D01*
X53961Y74970D02*
Y77685D01*
Y74970D02*
X55266Y73665D01*
X56024Y76606D02*
X57591D01*
X55929Y76701D02*
X56024Y76606D01*
X58291Y79063D02*
X59081Y78273D01*
Y40546D02*
Y78273D01*
X57714Y47400D02*
Y76482D01*
X57591Y76606D02*
X57714Y76482D01*
X54606Y44291D02*
X57714Y47400D01*
X44929Y110790D02*
Y114575D01*
Y118709D02*
Y119299D01*
X47842Y111772D02*
Y114575D01*
X47419Y106596D02*
X47455Y106560D01*
X101575Y117299D02*
X102165D01*
X82856Y116206D02*
Y119055D01*
X77606Y119394D02*
X77952Y119048D01*
X73177Y115249D02*
Y116134D01*
X73523Y116480D01*
X75453Y119394D02*
X77606D01*
X73523Y116480D02*
X75453D01*
X92842Y108937D02*
X92865Y108914D01*
X18201Y114012D02*
X21559Y110654D01*
X361693Y62598D02*
Y63189D01*
X357982Y74458D02*
X358187Y74253D01*
X310815Y116894D02*
X311221Y117299D01*
X303865Y122237D02*
X315531D01*
X315945Y120213D02*
Y121823D01*
X315531Y122237D02*
X315715Y122053D01*
X315945Y121823D01*
X302923Y121294D02*
X303865Y122237D01*
X302681Y118078D02*
X302923Y117836D01*
X308957Y116894D02*
X310815D01*
X308521Y116458D02*
X308957Y116894D01*
X302923Y117836D02*
Y121294D01*
X307253Y116458D02*
X308521D01*
X305106Y118502D02*
Y118821D01*
X54569Y57806D02*
X54606Y57843D01*
Y43701D02*
Y44291D01*
X55512Y19173D02*
X58799D01*
X55512Y16260D02*
X55690Y16081D01*
X57511Y38976D02*
X59081Y40546D01*
X54606Y38976D02*
X57511D01*
X54606Y57843D02*
Y62598D01*
X55690Y16081D02*
X59669D01*
X50787Y14217D02*
X51133Y13871D01*
X58799Y19173D02*
X60557Y20931D01*
X59669Y16081D02*
X61923Y18336D01*
X50787Y14217D02*
Y16260D01*
D44*
X50637Y93534D02*
X51688Y94585D01*
X50637Y93055D02*
Y93534D01*
X51688Y94585D02*
Y97210D01*
X51786Y97308D01*
D45*
X331868Y117277D02*
D03*
X51745Y49072D02*
D03*
X51083Y73598D02*
D03*
X58832Y91798D02*
D03*
X54692Y92833D02*
D03*
X44766Y91975D02*
D03*
X50637Y93055D02*
D03*
X60971Y95487D02*
D03*
X61484Y88131D02*
D03*
X359328Y120960D02*
D03*
X40702Y96247D02*
D03*
X54486Y120488D02*
D03*
X365638Y92090D02*
D03*
X51450Y128275D02*
D03*
X106225Y110260D02*
D03*
X220554Y104927D02*
D03*
X359054Y111915D02*
D03*
X258533Y111408D02*
D03*
X251274Y111045D02*
D03*
X251289Y115411D02*
D03*
X154153Y109556D02*
D03*
X158589Y104927D02*
D03*
X359415Y105226D02*
D03*
X360589Y97177D02*
D03*
X359036Y101224D02*
D03*
X355088Y101720D02*
D03*
X367594Y88464D02*
D03*
X372336Y83817D02*
D03*
X349311Y95133D02*
D03*
X359860Y81016D02*
D03*
X275003Y103675D02*
D03*
X270766Y105121D02*
D03*
X272836Y110557D02*
D03*
X336403Y105942D02*
D03*
X342997Y98523D02*
D03*
X230885Y105404D02*
D03*
X247003Y104361D02*
D03*
X63192Y120524D02*
D03*
X37800Y100827D02*
D03*
X38640Y104257D02*
D03*
X40041Y110932D02*
D03*
X55266Y73079D02*
D03*
X54569Y57806D02*
D03*
X53754Y102623D02*
D03*
X51992Y83000D02*
D03*
X36841Y126307D02*
D03*
X42757Y74212D02*
D03*
X324611Y121218D02*
D03*
X345627Y123503D02*
D03*
X263580Y126208D02*
D03*
X243562Y122375D02*
D03*
X351936Y125494D02*
D03*
X360567Y125308D02*
D03*
X144846Y130835D02*
D03*
X136771Y119884D02*
D03*
X113326Y115704D02*
D03*
X82856Y116206D02*
D03*
X14859Y127843D02*
D03*
X354108Y106479D02*
D03*
X369551Y103941D02*
D03*
X300953Y112520D02*
D03*
X192601Y112598D02*
D03*
X351765Y57434D02*
D03*
X139616Y110587D02*
D03*
X359133Y56862D02*
D03*
X332977Y127440D02*
D03*
X157753Y125894D02*
D03*
X144748Y124230D02*
D03*
X140750Y119734D02*
D03*
M02*
