M48
;Layer_Color=9474304
;FILE_FORMAT=2:4
INCH,LZ
;TYPE=PLATED
T1F00S00C0.0118
%
T01
X005175Y004907
X005457Y005781
X005527Y007308
X005108Y00736
X004276Y007421
X005199Y0083
X005064Y009305
X005469Y009283
X005883Y00918
X006097Y009549
X006148Y008813
X004477Y009197
X00407Y009625
X00378Y010083
X003864Y010426
X004004Y011093
X003684Y012631
X005145Y012828
X005449Y012049
X006319Y012052
X008286Y011621
X010623Y011026
X011333Y01157
X013677Y011988
X014075Y011973
X014475Y012423
X014485Y013083
X013962Y011059
X015415Y010956
X005375Y010262
X001486Y012784
X015775Y012589
X015859Y010493
X01926Y01126
X022055Y010493
X023089Y01054
X0247Y010436
X025127Y011104
X025129Y011541
X025853Y011141
X027284Y011056
X027077Y010512
X0275Y010367
X026358Y012621
X024356Y012237
X030095Y011252
X032461Y012122
X033187Y011728
X033298Y012744
X034563Y01235
X035194Y012549
X036057Y012531
X035933Y012096
X035905Y011191
X035942Y010523
X035904Y010122
X035509Y010172
X035411Y010648
X036059Y009718
X036564Y009209
X036759Y008846
X037234Y008382
X035986Y008102
X034931Y009513
X0343Y009852
X03364Y010594
X036955Y010394
X035913Y005686
X035176Y005743
M30
