G04*
G04 #@! TF.GenerationSoftware,Altium Limited,Altium Designer,21.6.4 (81)*
G04*
G04 Layer_Color=16711935*
%FSLAX25Y25*%
%MOIN*%
G70*
G04*
G04 #@! TF.SameCoordinates,FEAF3D2B-D975-464B-86DB-8C6995E3C2F8*
G04*
G04*
G04 #@! TF.FilePolarity,Negative*
G04*
G01*
G75*
%ADD20R,0.03556X0.03162*%
%ADD21R,0.03359X0.03241*%
%ADD22R,0.03162X0.03556*%
%ADD23R,0.03241X0.03359*%
%ADD25R,0.02769X0.02375*%
%ADD26C,0.03556*%
%ADD48C,0.25210*%
%ADD49C,0.02769*%
D20*
X49161Y98964D02*
D03*
X44830D02*
D03*
X55716Y124466D02*
D03*
X51386D02*
D03*
D21*
X264369Y112398D02*
D03*
X267834D02*
D03*
X345559Y105770D02*
D03*
X349024D02*
D03*
X359226Y87313D02*
D03*
X362691D02*
D03*
X47729Y81882D02*
D03*
X44265D02*
D03*
X43002Y104193D02*
D03*
X46466D02*
D03*
D22*
X335844Y121729D02*
D03*
Y126059D02*
D03*
X370779Y94573D02*
D03*
Y98904D02*
D03*
D23*
X318741Y110591D02*
D03*
Y114056D02*
D03*
X348392Y82144D02*
D03*
Y85608D02*
D03*
X58006Y80453D02*
D03*
Y83918D02*
D03*
X67820Y105047D02*
D03*
Y108512D02*
D03*
D25*
X323077Y109793D02*
D03*
Y112943D02*
D03*
X353127Y74834D02*
D03*
Y71684D02*
D03*
X73644Y107014D02*
D03*
Y110164D02*
D03*
D26*
X331868Y117277D02*
D03*
X51745Y49072D02*
D03*
X51083Y73598D02*
D03*
X58832Y91798D02*
D03*
X54692Y92833D02*
D03*
X44766Y91975D02*
D03*
X50637Y93055D02*
D03*
X60971Y95487D02*
D03*
X61484Y88131D02*
D03*
X359328Y120960D02*
D03*
X40702Y96247D02*
D03*
X54486Y120488D02*
D03*
X365638Y92090D02*
D03*
X51450Y128275D02*
D03*
X106225Y110260D02*
D03*
X220554Y104927D02*
D03*
X359054Y111915D02*
D03*
X258533Y111408D02*
D03*
X251274Y111045D02*
D03*
X251289Y115411D02*
D03*
X154153Y109556D02*
D03*
X158589Y104927D02*
D03*
X359415Y105226D02*
D03*
X360589Y97177D02*
D03*
X359036Y101224D02*
D03*
X355088Y101720D02*
D03*
X367594Y88464D02*
D03*
X372336Y83817D02*
D03*
X349311Y95133D02*
D03*
X359860Y81016D02*
D03*
X275003Y103675D02*
D03*
X270766Y105121D02*
D03*
X272836Y110557D02*
D03*
X336403Y105942D02*
D03*
X342997Y98523D02*
D03*
X230885Y105404D02*
D03*
X247003Y104361D02*
D03*
X63192Y120524D02*
D03*
X37800Y100827D02*
D03*
X38640Y104257D02*
D03*
X40041Y110932D02*
D03*
X55266Y73079D02*
D03*
X54569Y57806D02*
D03*
X53754Y102623D02*
D03*
X51992Y83000D02*
D03*
X36841Y126307D02*
D03*
X42757Y74212D02*
D03*
X324611Y121218D02*
D03*
X345627Y123503D02*
D03*
X263580Y126208D02*
D03*
X243562Y122375D02*
D03*
X351936Y125494D02*
D03*
X360567Y125308D02*
D03*
X144846Y130835D02*
D03*
X136771Y119884D02*
D03*
X113326Y115704D02*
D03*
X82856Y116206D02*
D03*
X14859Y127843D02*
D03*
X354108Y106479D02*
D03*
X369551Y103941D02*
D03*
X300953Y112520D02*
D03*
X192601Y112598D02*
D03*
X351765Y57434D02*
D03*
X139616Y110587D02*
D03*
X359133Y56862D02*
D03*
X332977Y127440D02*
D03*
X157753Y125894D02*
D03*
X144748Y124230D02*
D03*
X140750Y119734D02*
D03*
D48*
X388189Y116142D02*
D03*
X360236Y17717D02*
D03*
X51181D02*
D03*
X25197Y116142D02*
D03*
D49*
X162665Y125780D02*
D03*
X147273Y127188D02*
D03*
X175352Y122698D02*
D03*
X180243D02*
D03*
X175106Y114820D02*
D03*
M02*
