G04*
G04 #@! TF.GenerationSoftware,Altium Limited,Altium Designer,21.6.4 (81)*
G04*
G04 Layer_Physical_Order=2*
G04 Layer_Color=16711680*
%FSLAX25Y25*%
%MOIN*%
G70*
G04*
G04 #@! TF.SameCoordinates,FEAF3D2B-D975-464B-86DB-8C6995E3C2F8*
G04*
G04*
G04 #@! TF.FilePolarity,Positive*
G04*
G01*
G75*
%ADD10C,0.00787*%
%ADD36R,0.02756X0.02362*%
%ADD37R,0.02559X0.02441*%
%ADD38R,0.02362X0.02756*%
%ADD39R,0.02441X0.02559*%
%ADD41R,0.01968X0.01575*%
%ADD42C,0.01000*%
%ADD43C,0.00591*%
%ADD44C,0.00984*%
%ADD45C,0.02756*%
%ADD46C,0.24410*%
%ADD47C,0.01968*%
G36*
X210532Y134236D02*
X214369Y134231D01*
X218207Y134222D01*
X222045Y134210D01*
X222045Y134210D01*
X225881Y134194D01*
X229718Y134174D01*
X233556Y134151D01*
X237391Y134125D01*
X237391Y134125D01*
X241228Y134094D01*
X245063Y134061D01*
X248898Y134023D01*
X252731Y133983D01*
X252731Y133983D01*
X256566Y133939D01*
X260399Y133891D01*
X264230Y133839D01*
X268062Y133784D01*
X271893Y133726D01*
X271893Y133726D01*
X275722Y133664D01*
X279551Y133598D01*
X283378Y133529D01*
X287206Y133457D01*
X287206D01*
X291030Y133381D01*
X294855Y133301D01*
X298679Y133218D01*
X302500Y133131D01*
X302500Y133131D01*
X306321Y133041D01*
X310140Y132947D01*
X313958Y132850D01*
X317774Y132749D01*
X321588Y132644D01*
X325402Y132537D01*
X329214Y132425D01*
X329214Y132425D01*
X333023Y132310D01*
X336831Y132192D01*
X340638Y132070D01*
X340639D01*
X344442Y131944D01*
X344442Y131944D01*
X348246Y131815D01*
X352046Y131683D01*
X352046Y131683D01*
X355845Y131547D01*
X359642Y131407D01*
X363436Y131264D01*
X367229Y131118D01*
X371018Y130968D01*
X374806Y130814D01*
X378592Y130657D01*
X382375Y130497D01*
X386157Y130333D01*
X386157D01*
X389934Y130165D01*
X393711Y129994D01*
X397484Y129820D01*
X397484Y129820D01*
X397971Y129797D01*
X398918Y129568D01*
X399806Y129163D01*
X400600Y128598D01*
X401273Y127893D01*
X401801Y127073D01*
X402164Y126168D01*
X402348Y125210D01*
X402348Y124723D01*
X402348Y106702D01*
Y106199D01*
X402152Y105213D01*
X401767Y104285D01*
X401209Y103449D01*
X400498Y102738D01*
X399662Y102180D01*
X398734Y101795D01*
X397748Y101599D01*
X397246Y101599D01*
X393702D01*
X393689Y101596D01*
X393676Y101598D01*
X392466Y101559D01*
X392427Y101550D01*
X392387Y101552D01*
X389987Y101236D01*
X389937Y101219D01*
X389884Y101216D01*
X387546Y100590D01*
X387499Y100566D01*
X387447Y100556D01*
X385211Y99629D01*
X385167Y99600D01*
X385117Y99583D01*
X383020Y98373D01*
X382981Y98338D01*
X382933Y98314D01*
X381013Y96841D01*
X380978Y96801D01*
X380934Y96772D01*
X379222Y95060D01*
X379193Y95016D01*
X379153Y94981D01*
X377680Y93061D01*
X377656Y93014D01*
X377622Y92974D01*
X376411Y90878D01*
X376394Y90828D01*
X376365Y90783D01*
X375439Y88547D01*
X375428Y88495D01*
X375405Y88448D01*
X374778Y86110D01*
X374775Y86057D01*
X374758Y86007D01*
X374625Y84997D01*
X374105Y84876D01*
X373820Y85301D01*
X373139Y85756D01*
X372336Y85916D01*
X372061Y85862D01*
X371761Y86312D01*
X371891Y86507D01*
X371983Y86968D01*
X371983Y86968D01*
Y92514D01*
X372641D01*
Y96345D01*
X372641Y96632D01*
X372641Y97132D01*
Y99260D01*
X374762Y101381D01*
X374762Y101381D01*
X375023Y101772D01*
X375115Y102233D01*
X375115Y102233D01*
Y106957D01*
X375023Y107418D01*
X374762Y107808D01*
X361382Y121189D01*
X361267Y121763D01*
X360812Y122444D01*
X360373Y122738D01*
X360567Y123207D01*
X360568Y123209D01*
X361371Y123369D01*
X362052Y123824D01*
X362507Y124505D01*
X362667Y125308D01*
X362507Y126111D01*
X362052Y126793D01*
X361371Y127248D01*
X360567Y127408D01*
X359764Y127248D01*
X359083Y126793D01*
X358958Y126605D01*
X353670D01*
X353420Y126979D01*
X352739Y127434D01*
X351936Y127593D01*
X351132Y127434D01*
X350451Y126979D01*
X349996Y126297D01*
X349836Y125494D01*
X349996Y124691D01*
X350451Y124010D01*
X351132Y123554D01*
X351936Y123395D01*
X352739Y123554D01*
X353420Y124010D01*
X353545Y124197D01*
X358834D01*
X359083Y123824D01*
X359522Y123530D01*
X359329Y123060D01*
X359328Y123059D01*
X358524Y122899D01*
X357843Y122444D01*
X357388Y121763D01*
X357228Y120960D01*
X357388Y120156D01*
X357843Y119475D01*
X358524Y119020D01*
X359328Y118860D01*
X360131Y119020D01*
X360139Y119025D01*
X372706Y106458D01*
Y102731D01*
X370938Y100963D01*
X368917D01*
Y97132D01*
X368917Y96845D01*
X368917Y96345D01*
Y92514D01*
X369574D01*
Y90106D01*
X369078Y89949D01*
X368397Y90404D01*
X367684Y90546D01*
X367491Y90831D01*
X367411Y91037D01*
X367578Y91287D01*
X367738Y92090D01*
X367578Y92894D01*
X367123Y93575D01*
X366843Y93762D01*
Y98402D01*
X367392Y98951D01*
X367392Y98951D01*
X367653Y99342D01*
X367745Y99803D01*
X367745Y99803D01*
Y101686D01*
X368245Y101954D01*
X368623Y101701D01*
X369051Y101616D01*
Y103941D01*
Y106266D01*
X368623Y106181D01*
X368245Y105928D01*
X367883Y106080D01*
X367735Y106189D01*
X367653Y106599D01*
X367392Y106989D01*
X364690Y109691D01*
X364300Y109952D01*
X363839Y110044D01*
X363839Y110044D01*
X363207D01*
X361108Y112144D01*
X360994Y112718D01*
X360539Y113399D01*
X359858Y113854D01*
X359054Y114014D01*
X358251Y113854D01*
X357570Y113399D01*
X357115Y112718D01*
X356955Y111915D01*
X357115Y111111D01*
X357570Y110430D01*
X358251Y109975D01*
X359054Y109815D01*
X359858Y109975D01*
X359865Y109980D01*
X361857Y107988D01*
X362248Y107727D01*
X362709Y107636D01*
X362709Y107636D01*
X363340D01*
X365337Y105639D01*
Y100302D01*
X364787Y99752D01*
X364526Y99361D01*
X364434Y98900D01*
X364434Y98900D01*
Y93762D01*
X364154Y93575D01*
X363699Y92894D01*
X363539Y92090D01*
X363699Y91287D01*
X364154Y90606D01*
X364835Y90151D01*
X365548Y90009D01*
X365742Y89723D01*
X365821Y89517D01*
X365654Y89268D01*
X365514Y88563D01*
X365468Y88517D01*
X364651D01*
Y89214D01*
X361506D01*
Y89533D01*
X359726D01*
Y87313D01*
X359226D01*
Y86813D01*
X356837D01*
X356485Y86667D01*
X350516Y92636D01*
Y93462D01*
X350796Y93649D01*
X351251Y94330D01*
X351411Y95133D01*
X351251Y95937D01*
X350796Y96618D01*
X350115Y97073D01*
X349311Y97233D01*
X348508Y97073D01*
X347827Y96618D01*
X347372Y95937D01*
X347212Y95133D01*
X347372Y94330D01*
X347827Y93649D01*
X348107Y93462D01*
Y92137D01*
X348107Y92137D01*
X348199Y91676D01*
X348460Y91286D01*
X354920Y84826D01*
Y84466D01*
X354920Y84466D01*
X355012Y84005D01*
X355273Y83615D01*
X356020Y82867D01*
X356020Y82867D01*
X356411Y82606D01*
X356871Y82515D01*
X357351D01*
X357379Y82496D01*
X357387Y82495D01*
X357620Y81944D01*
X357535Y81516D01*
X362185D01*
X362100Y81944D01*
X362013Y82074D01*
X362249Y82515D01*
X367530D01*
X367530Y82515D01*
X367990Y82606D01*
X368381Y82867D01*
X369825Y84311D01*
X370286Y84065D01*
X370236Y83817D01*
X370302Y83486D01*
X362854Y76038D01*
X354792D01*
Y76302D01*
X354331D01*
Y81638D01*
X354331Y81638D01*
X354239Y82099D01*
X353978Y82490D01*
X353978Y82490D01*
X353472Y82995D01*
X353082Y83256D01*
X352621Y83348D01*
X352621Y83348D01*
X350612D01*
Y85108D01*
X348392D01*
X346171D01*
Y83329D01*
X346490D01*
Y80183D01*
X350293D01*
Y80940D01*
X351922D01*
Y76302D01*
X351461D01*
Y73472D01*
X351142D01*
Y72184D01*
X353127D01*
Y71684D01*
X353626D01*
Y69897D01*
X353906D01*
Y68266D01*
X350913Y65273D01*
X350652Y64882D01*
X350561Y64422D01*
X350561Y64422D01*
Y59106D01*
X350280Y58919D01*
X349825Y58237D01*
X349665Y57434D01*
X349825Y56631D01*
X350280Y55950D01*
X350961Y55494D01*
X351765Y55335D01*
X352568Y55494D01*
X353249Y55950D01*
X353705Y56631D01*
X353864Y57434D01*
X353705Y58237D01*
X353249Y58919D01*
X352969Y59106D01*
Y63923D01*
X355962Y66916D01*
X355962Y66916D01*
X356223Y67307D01*
X356315Y67768D01*
X356315Y67768D01*
Y69610D01*
X356511Y69903D01*
X356602Y70363D01*
Y73005D01*
X356602Y73005D01*
X356578Y73129D01*
X356957Y73630D01*
X363352D01*
X363352Y73629D01*
X363813Y73721D01*
X364204Y73982D01*
X372005Y81783D01*
X372336Y81717D01*
X373139Y81877D01*
X373820Y82332D01*
X373900Y82452D01*
X374364Y82327D01*
X374398Y82305D01*
X374395Y82292D01*
X374395Y9844D01*
Y8953D01*
X374048Y7207D01*
X373367Y5562D01*
X372377Y4081D01*
X371118Y2822D01*
X369638Y1833D01*
X367992Y1151D01*
X366246Y804D01*
X332497D01*
Y97049D01*
X332493Y97068D01*
X332496Y97088D01*
X332477Y97474D01*
X332463Y97532D01*
Y97591D01*
X332312Y98348D01*
X332282Y98421D01*
X332266Y98499D01*
X331971Y99212D01*
X331927Y99278D01*
X331897Y99351D01*
X331468Y99992D01*
X331412Y100048D01*
X331368Y100114D01*
X330823Y100660D01*
X330757Y100704D01*
X330701Y100759D01*
X330059Y101188D01*
X329986Y101218D01*
X329920Y101262D01*
X329207Y101558D01*
X329130Y101573D01*
X329057Y101603D01*
X328300Y101754D01*
X328240D01*
X328183Y101769D01*
X327797Y101787D01*
X327777Y101785D01*
X327757Y101788D01*
X277128Y101788D01*
X276871Y102288D01*
X277003Y102474D01*
X285783D01*
X285783Y102474D01*
X286244Y102566D01*
X286634Y102827D01*
X300382Y116574D01*
X303455D01*
X303455Y116574D01*
X303916Y116666D01*
X304307Y116927D01*
X304728Y117349D01*
X325968D01*
X325968Y117349D01*
X326428Y117440D01*
X326819Y117701D01*
X327604Y118487D01*
X328104Y118280D01*
Y113390D01*
X328104Y113390D01*
X328196Y112929D01*
X328457Y112539D01*
X329043Y111953D01*
X329043Y111953D01*
X329433Y111692D01*
X329894Y111600D01*
X333242D01*
X335948Y108894D01*
X335795Y108341D01*
X335724Y108323D01*
X333403Y110645D01*
X333012Y110906D01*
X332551Y110998D01*
X332551Y110998D01*
X325496D01*
X325061Y111156D01*
Y112443D01*
X323077D01*
Y112943D01*
X322577D01*
Y114730D01*
X321093D01*
X320962Y115176D01*
Y116336D01*
X319241D01*
Y114056D01*
X318741D01*
Y113556D01*
X316521D01*
Y111776D01*
X316840D01*
Y108631D01*
X320643D01*
Y109387D01*
X321412D01*
Y108325D01*
X322476D01*
X322593Y108302D01*
X322790D01*
X322906Y108325D01*
X324742D01*
Y108589D01*
X332052D01*
X334369Y106273D01*
X334303Y105942D01*
X334463Y105139D01*
X334918Y104458D01*
X335599Y104003D01*
X336403Y103843D01*
X337206Y104003D01*
X337758Y104371D01*
X338258Y104181D01*
Y102058D01*
X338258Y102057D01*
X338350Y101597D01*
X338611Y101206D01*
X340963Y98853D01*
X340897Y98523D01*
X341057Y97720D01*
X341512Y97038D01*
X342193Y96583D01*
X342997Y96424D01*
X343800Y96583D01*
X344481Y97038D01*
X344936Y97720D01*
X345096Y98523D01*
X344936Y99326D01*
X344481Y100007D01*
X343800Y100462D01*
X342997Y100622D01*
X342666Y100557D01*
X340666Y102556D01*
Y107083D01*
X340575Y107544D01*
X340314Y107935D01*
X334593Y113656D01*
X334202Y113917D01*
X333741Y114009D01*
X333741Y114009D01*
X330513D01*
Y115175D01*
X330954Y115411D01*
X331064Y115337D01*
X331868Y115178D01*
X332671Y115337D01*
X333352Y115793D01*
X333539Y116073D01*
X336771D01*
X336771Y116073D01*
X337232Y116164D01*
X337623Y116426D01*
X338637Y117440D01*
X342068D01*
X349286Y110222D01*
Y110098D01*
X349286Y110097D01*
X349377Y109637D01*
X349639Y109246D01*
X350713Y108171D01*
X350506Y107671D01*
X347839D01*
Y107990D01*
X346059D01*
Y105770D01*
Y103549D01*
X347839D01*
Y103868D01*
X349652D01*
X349693Y103840D01*
X350154Y103749D01*
X351366D01*
X353056Y102058D01*
X352989Y101720D01*
X353149Y100917D01*
X353604Y100236D01*
X354285Y99781D01*
X355088Y99621D01*
X355892Y99781D01*
X356573Y100236D01*
X356642Y100339D01*
X357197Y100270D01*
X357552Y99740D01*
X358233Y99285D01*
X358930Y99146D01*
X359077Y98770D01*
X359092Y98643D01*
X358650Y97981D01*
X358490Y97177D01*
X358650Y96374D01*
X359105Y95693D01*
X359786Y95238D01*
X360589Y95078D01*
X361393Y95238D01*
X362074Y95693D01*
X362529Y96374D01*
X362689Y97177D01*
X362640Y97423D01*
X363006Y97790D01*
X363006Y97790D01*
X363267Y98180D01*
X363359Y98641D01*
X363359Y98641D01*
Y102662D01*
X363267Y103123D01*
X363006Y103514D01*
X363006Y103514D01*
X361478Y105042D01*
X361514Y105226D01*
X361355Y106030D01*
X360900Y106711D01*
X360219Y107166D01*
X359415Y107326D01*
X359231Y107289D01*
X345897Y120623D01*
X346062Y121166D01*
X346554Y121264D01*
X347341Y121789D01*
X347867Y122576D01*
X347952Y123003D01*
X342873D01*
X342806Y122933D01*
X338060D01*
X337706Y123287D01*
X337706Y123788D01*
X337706Y124288D01*
Y128119D01*
X335407D01*
X335260Y128217D01*
X334884Y128292D01*
X334461Y128925D01*
X333780Y129380D01*
X332977Y129540D01*
X332173Y129380D01*
X331492Y128925D01*
X331037Y128244D01*
X330877Y127440D01*
X331037Y126637D01*
X331492Y125956D01*
X332173Y125501D01*
X332977Y125341D01*
X333482Y125442D01*
X333982Y125080D01*
X333982Y124000D01*
X333982Y123500D01*
Y121654D01*
X331918D01*
X331918Y121654D01*
X331457Y121563D01*
X331067Y121302D01*
X331067Y121302D01*
X330837Y121072D01*
X327282D01*
X327282Y121072D01*
X327187Y121053D01*
X327099Y121083D01*
X326668Y121433D01*
X326551Y122022D01*
X326096Y122703D01*
X325414Y123158D01*
X324611Y123318D01*
X323808Y123158D01*
X323127Y122703D01*
X322671Y122022D01*
X322576Y121545D01*
X303489D01*
X303489Y121545D01*
X303028Y121453D01*
X302638Y121192D01*
X302638Y121192D01*
X302216Y120770D01*
X299143D01*
X298682Y120678D01*
X298291Y120417D01*
X298291Y120417D01*
X288873Y111000D01*
X286373D01*
X285912Y110908D01*
X285522Y110647D01*
X285522Y110647D01*
X284774Y109900D01*
X284513Y109509D01*
X284422Y109048D01*
X284422Y109048D01*
Y107779D01*
X284179Y107536D01*
X273902D01*
X273902Y107536D01*
X273442Y107444D01*
X273051Y107183D01*
X273051Y107183D01*
X272529Y106662D01*
X272167D01*
X271569Y107061D01*
X270766Y107221D01*
X269963Y107061D01*
X269282Y106606D01*
X268826Y105925D01*
X268667Y105121D01*
X268826Y104318D01*
X269282Y103637D01*
X269963Y103182D01*
X270766Y103022D01*
X271569Y103182D01*
X272251Y103637D01*
X272444Y103927D01*
X272915Y103732D01*
X272904Y103675D01*
X273064Y102872D01*
X273453Y102288D01*
X273289Y101788D01*
X247188D01*
X247139Y102288D01*
X247339Y102328D01*
X247807Y102421D01*
X248488Y102876D01*
X248781Y103315D01*
X254555D01*
X254555Y103315D01*
X255016Y103407D01*
X255406Y103668D01*
X259385Y107646D01*
X259385Y107646D01*
X259646Y108037D01*
X259737Y108498D01*
Y109736D01*
X260018Y109923D01*
X260473Y110605D01*
X260632Y111408D01*
X260473Y112211D01*
X260018Y112892D01*
X259737Y113080D01*
Y120662D01*
X263249Y124174D01*
X263580Y124108D01*
X264384Y124268D01*
X265065Y124723D01*
X265520Y125404D01*
X265680Y126208D01*
X265520Y127011D01*
X265065Y127692D01*
X264384Y128147D01*
X263580Y128307D01*
X262777Y128147D01*
X262096Y127692D01*
X261641Y127011D01*
X261481Y126208D01*
X261546Y125877D01*
X257682Y122012D01*
X257420Y121622D01*
X257329Y121161D01*
X257329Y121161D01*
Y113080D01*
X257049Y112892D01*
X256593Y112211D01*
X256434Y111408D01*
X256593Y110605D01*
X257049Y109923D01*
X257329Y109736D01*
Y108996D01*
X254056Y105724D01*
X248569D01*
X248488Y105845D01*
X247807Y106300D01*
X247003Y106460D01*
X246200Y106300D01*
X245519Y105845D01*
X245064Y105164D01*
X244904Y104361D01*
X245064Y103558D01*
X245519Y102876D01*
X246200Y102421D01*
X246668Y102328D01*
X246868Y102288D01*
X246819Y101788D01*
X69096Y101788D01*
X69076Y101785D01*
X69056Y101787D01*
X68671Y101769D01*
X68613Y101754D01*
X68553D01*
X67796Y101603D01*
X67723Y101573D01*
X67646Y101558D01*
X66933Y101262D01*
X66867Y101218D01*
X66794Y101188D01*
X66152Y100759D01*
X66096Y100704D01*
X66031Y100660D01*
X65485Y100114D01*
X65441Y100048D01*
X65385Y99992D01*
X64956Y99351D01*
X64926Y99277D01*
X64882Y99212D01*
X64587Y98499D01*
X64571Y98421D01*
X64541Y98348D01*
X64390Y97591D01*
Y97532D01*
X64376Y97474D01*
X64357Y97088D01*
X64372Y96991D01*
Y21481D01*
X63872Y21422D01*
X63778Y21810D01*
X62983Y23730D01*
X61897Y25502D01*
X60547Y27083D01*
X58967Y28432D01*
X57194Y29518D01*
X55274Y30314D01*
X53253Y30799D01*
X51681Y30923D01*
Y17717D01*
Y4510D01*
X53253Y4634D01*
X55274Y5119D01*
X57194Y5915D01*
X58967Y7001D01*
X60547Y8350D01*
X61897Y9931D01*
X62983Y11703D01*
X63778Y13623D01*
X63872Y14011D01*
X64372Y13952D01*
Y804D01*
X47142D01*
X45396Y1151D01*
X43751Y1833D01*
X42270Y2822D01*
X41011Y4081D01*
X40022Y5562D01*
X39340Y7207D01*
X38993Y8953D01*
Y11376D01*
X39493Y11517D01*
X40465Y9931D01*
X41815Y8350D01*
X43396Y7001D01*
X45168Y5915D01*
X47088Y5119D01*
X49109Y4634D01*
X50681Y4510D01*
Y17717D01*
Y30923D01*
X49109Y30799D01*
X47088Y30314D01*
X45168Y29518D01*
X43396Y28432D01*
X41815Y27083D01*
X40465Y25502D01*
X39493Y23916D01*
X38993Y24057D01*
X38993Y82292D01*
X38991Y82305D01*
X38993Y82318D01*
X38977Y82794D01*
X39436Y82993D01*
X41219Y81209D01*
X41219Y81209D01*
X41610Y80948D01*
X42071Y80856D01*
X42304D01*
Y79980D01*
X42944D01*
Y76577D01*
X42659Y76292D01*
X41954Y76152D01*
X41273Y75697D01*
X40818Y75016D01*
X40658Y74212D01*
X40818Y73409D01*
X41273Y72728D01*
X41954Y72273D01*
X42757Y72113D01*
X43561Y72273D01*
X44242Y72728D01*
X44697Y73409D01*
X44857Y74212D01*
X44712Y74939D01*
X45000Y75227D01*
X45000Y75227D01*
X45261Y75618D01*
X45353Y76078D01*
Y79201D01*
X45450Y79661D01*
X47229D01*
Y81882D01*
Y84102D01*
X45450D01*
Y83783D01*
X42304D01*
X42304Y83783D01*
Y83783D01*
X41872Y83962D01*
X40664Y85171D01*
Y90917D01*
X40664Y90917D01*
X40572Y91377D01*
X40311Y91768D01*
X40136Y91943D01*
X40327Y92405D01*
X41798D01*
X42256Y92496D01*
X42261Y92500D01*
X42711Y92199D01*
X42667Y91975D01*
X42826Y91171D01*
X43281Y90490D01*
X43962Y90035D01*
X44766Y89875D01*
X45343Y89990D01*
X46140Y89193D01*
X46463Y88977D01*
X46844Y88901D01*
X56857D01*
X57238Y88977D01*
X57561Y89193D01*
X58194Y89825D01*
X58832Y89698D01*
X59548Y89841D01*
X59765Y89633D01*
X59879Y89436D01*
X59544Y88935D01*
X59384Y88131D01*
X59542Y87339D01*
X59309Y87105D01*
X59093Y86782D01*
X59017Y86401D01*
Y86396D01*
X58499Y85878D01*
X56104D01*
Y82733D01*
X55785D01*
Y80953D01*
X58006D01*
X60226D01*
Y82733D01*
X59907D01*
Y84470D01*
X60716Y85280D01*
X60932Y85603D01*
X61008Y85984D01*
X61484Y86032D01*
X62287Y86192D01*
X62968Y86647D01*
X63423Y87328D01*
X63583Y88131D01*
X63423Y88935D01*
X62968Y89616D01*
X62287Y90071D01*
X61484Y90231D01*
X60767Y90088D01*
X60550Y90297D01*
X60437Y90494D01*
X60772Y90995D01*
X60931Y91798D01*
X60772Y92601D01*
X60528Y92966D01*
X60829Y93416D01*
X60971Y93388D01*
X61775Y93547D01*
X62456Y94003D01*
X62911Y94684D01*
X63071Y95487D01*
X62911Y96290D01*
X62456Y96972D01*
X62060Y97237D01*
X62026Y97758D01*
X62531Y98262D01*
X62747Y98585D01*
X62822Y98966D01*
Y101003D01*
X62747Y101384D01*
X62531Y101707D01*
X58890Y105348D01*
Y122309D01*
X58814Y122689D01*
X58598Y123012D01*
X57775Y123835D01*
Y126328D01*
X53945D01*
X53657Y126328D01*
X53141Y126328D01*
X53002Y126640D01*
X52959Y126828D01*
X53389Y127472D01*
X53549Y128275D01*
X53389Y129079D01*
X52934Y129760D01*
X52253Y130215D01*
X51450Y130375D01*
X50646Y130215D01*
X49965Y129760D01*
X49510Y129079D01*
X49350Y128275D01*
X49510Y127472D01*
X49940Y126828D01*
X49897Y126640D01*
X49758Y126328D01*
X49327D01*
Y122604D01*
X53045D01*
X53197Y122104D01*
X53001Y121973D01*
X52546Y121292D01*
X52386Y120488D01*
X52546Y119685D01*
X53001Y119004D01*
X53682Y118549D01*
X54486Y118389D01*
X55132Y118517D01*
X55498Y118190D01*
Y104919D01*
X54998Y104652D01*
X54682Y104863D01*
X54254Y104948D01*
Y102623D01*
X53254D01*
Y104948D01*
X52827Y104863D01*
X52040Y104337D01*
X51514Y103551D01*
X51386Y102905D01*
X51155Y102561D01*
X50854Y102455D01*
X48746D01*
Y103693D01*
X46466D01*
Y104693D01*
X48746D01*
Y106414D01*
X47783D01*
X47455Y106914D01*
X47501Y107146D01*
Y116851D01*
X47409Y117312D01*
X47148Y117703D01*
X47148Y117703D01*
X38874Y125977D01*
X38940Y126307D01*
X38780Y127111D01*
X38325Y127792D01*
X37644Y128247D01*
X36841Y128407D01*
X36037Y128247D01*
X35356Y127792D01*
X34901Y127111D01*
X34741Y126307D01*
X34812Y125953D01*
X34355Y125685D01*
X32982Y126858D01*
X31210Y127944D01*
X29290Y128739D01*
X27269Y129224D01*
X25697Y129348D01*
Y116642D01*
X38403D01*
X38279Y118214D01*
X37794Y120235D01*
X36999Y122155D01*
X35944Y123877D01*
X36003Y124043D01*
X36226Y124330D01*
X36841Y124208D01*
X37171Y124274D01*
X45092Y116353D01*
Y108343D01*
X40325D01*
X40229Y108451D01*
X40102Y108843D01*
X40106Y108846D01*
X40844Y108993D01*
X41525Y109448D01*
X41980Y110129D01*
X42140Y110932D01*
X41980Y111736D01*
X41525Y112417D01*
X40844Y112872D01*
X40041Y113032D01*
X39237Y112872D01*
X38556Y112417D01*
X38307Y112044D01*
X37842Y112248D01*
X38279Y114070D01*
X38403Y115642D01*
X25697D01*
Y102936D01*
X27269Y103059D01*
X29290Y103544D01*
X31210Y104340D01*
X31711Y104647D01*
X32147Y104402D01*
Y97647D01*
X31647Y97400D01*
X30455Y98314D01*
X30408Y98338D01*
X30368Y98373D01*
X28272Y99583D01*
X28222Y99600D01*
X28178Y99629D01*
X25942Y100556D01*
X25890Y100566D01*
X25842Y100590D01*
X23504Y101216D01*
X23451Y101219D01*
X23401Y101236D01*
X21001Y101552D01*
X20962Y101550D01*
X20923Y101559D01*
X19713Y101598D01*
X19700Y101596D01*
X19686Y101599D01*
X15641Y101599D01*
X14655Y101795D01*
X13726Y102180D01*
X12890Y102738D01*
X12179Y103449D01*
X11621Y104285D01*
X11236Y105213D01*
X11040Y106199D01*
X11040Y106702D01*
Y124723D01*
Y125210D01*
X11225Y126168D01*
X11588Y127073D01*
X11962Y127655D01*
X12492Y127554D01*
X12619Y126916D01*
X13145Y126129D01*
X13931Y125603D01*
X14359Y125518D01*
Y127843D01*
X14859D01*
Y128343D01*
X17184D01*
X17099Y128771D01*
X16708Y129356D01*
X16941Y129868D01*
X19678Y129994D01*
X23455Y130165D01*
X27232Y130333D01*
X27232Y130333D01*
X31014Y130497D01*
X34797Y130657D01*
X38583Y130814D01*
X42371Y130968D01*
X46160Y131118D01*
X49952Y131264D01*
X53747Y131407D01*
X57543Y131547D01*
X61343Y131683D01*
X61343Y131683D01*
X65143Y131815D01*
X68946Y131944D01*
X68946Y131944D01*
X72750Y132070D01*
X72750D01*
X76557Y132192D01*
X80365Y132310D01*
X84175Y132425D01*
X87987Y132537D01*
X91800Y132644D01*
X95615Y132749D01*
X99430Y132850D01*
X103248Y132947D01*
X107067Y133041D01*
X110889Y133131D01*
X110889Y133131D01*
X114710Y133218D01*
X118533Y133301D01*
X122358Y133381D01*
X126183Y133457D01*
X126183D01*
X130010Y133529D01*
X133838Y133598D01*
X137667Y133664D01*
X141496Y133726D01*
X141496Y133726D01*
X145327Y133784D01*
X149158Y133839D01*
X152990Y133891D01*
X156823Y133939D01*
X160657Y133983D01*
X160657Y133983D01*
X164491Y134023D01*
X168325Y134061D01*
X172161Y134094D01*
X175997Y134125D01*
X175997Y134125D01*
X179833Y134151D01*
X183670Y134174D01*
X187507Y134194D01*
X191343Y134210D01*
X191344Y134210D01*
X195182Y134222D01*
X199019Y134231D01*
X202857Y134236D01*
X206694Y134238D01*
X210532Y134236D01*
D02*
G37*
%LPC*%
G36*
X24697Y129348D02*
X23125Y129224D01*
X21104Y128739D01*
X19184Y127944D01*
X17623Y126987D01*
X17175Y127299D01*
X17184Y127343D01*
X15359D01*
Y125113D01*
X15414Y125020D01*
X14481Y123927D01*
X13395Y122155D01*
X12600Y120235D01*
X12114Y118214D01*
X11991Y116642D01*
X24697D01*
Y129348D01*
D02*
G37*
G36*
X144846Y132934D02*
X144042Y132775D01*
X143361Y132319D01*
X142906Y131638D01*
X142746Y130835D01*
X142906Y130032D01*
X143361Y129350D01*
X143593Y129196D01*
Y127533D01*
X143593Y127532D01*
X143593Y127532D01*
Y125935D01*
X143263Y125715D01*
X142808Y125033D01*
X142649Y124230D01*
X142808Y123427D01*
X143263Y122746D01*
X143945Y122291D01*
X144748Y122131D01*
X145551Y122291D01*
X146232Y122746D01*
X146688Y123427D01*
X146847Y124230D01*
X146688Y125033D01*
X146639Y125106D01*
X146940Y125556D01*
X147273Y125490D01*
X147922Y125619D01*
X148473Y125987D01*
X148841Y126538D01*
X148970Y127188D01*
X148841Y127838D01*
X148473Y128389D01*
X147922Y128757D01*
X147273Y128886D01*
X146824Y128797D01*
X146358Y129055D01*
X146288Y129135D01*
X146270Y129310D01*
X146330Y129350D01*
X146785Y130032D01*
X146945Y130835D01*
X146785Y131638D01*
X146330Y132319D01*
X145649Y132775D01*
X144846Y132934D01*
D02*
G37*
G36*
X157753Y127993D02*
X156949Y127833D01*
X156268Y127378D01*
X155813Y126697D01*
X155653Y125894D01*
X155813Y125090D01*
X156268Y124409D01*
X156949Y123954D01*
X157753Y123794D01*
X158556Y123954D01*
X159237Y124409D01*
X159387Y124633D01*
X161429D01*
X161464Y124580D01*
X162015Y124212D01*
X162665Y124082D01*
X163315Y124212D01*
X163866Y124580D01*
X164234Y125131D01*
X164363Y125780D01*
X164234Y126430D01*
X163866Y126981D01*
X163315Y127349D01*
X162665Y127478D01*
X162015Y127349D01*
X161555Y127041D01*
X159462D01*
X159237Y127378D01*
X158556Y127833D01*
X157753Y127993D01*
D02*
G37*
G36*
X346127Y125829D02*
Y124004D01*
X347952D01*
X347867Y124431D01*
X347341Y125218D01*
X346554Y125743D01*
X346127Y125829D01*
D02*
G37*
G36*
X345127D02*
X344699Y125743D01*
X343912Y125218D01*
X343387Y124431D01*
X343302Y124004D01*
X345127D01*
Y125829D01*
D02*
G37*
G36*
X180743Y124622D02*
Y123198D01*
X182166D01*
X182112Y123473D01*
X181673Y124129D01*
X181017Y124567D01*
X180743Y124622D01*
D02*
G37*
G36*
X179743D02*
X179468Y124567D01*
X178812Y124129D01*
X178373Y123473D01*
X178319Y123198D01*
X179743D01*
Y124622D01*
D02*
G37*
G36*
X244062Y124700D02*
Y122875D01*
X245887D01*
X245802Y123303D01*
X245276Y124089D01*
X244490Y124615D01*
X244062Y124700D01*
D02*
G37*
G36*
X243062D02*
X242634Y124615D01*
X241847Y124089D01*
X241322Y123303D01*
X241237Y122875D01*
X243062D01*
Y124700D01*
D02*
G37*
G36*
X175352Y124396D02*
X174702Y124267D01*
X174151Y123899D01*
X173783Y123348D01*
X173654Y122698D01*
X173783Y122049D01*
X174039Y121666D01*
X173929Y121166D01*
X158072D01*
X158072Y121166D01*
X157611Y121074D01*
X157220Y120813D01*
X157220Y120813D01*
X155512Y119105D01*
X143234D01*
X142823Y119601D01*
X142849Y119734D01*
X142689Y120537D01*
X142234Y121218D01*
X141553Y121673D01*
X140750Y121833D01*
X139946Y121673D01*
X139317Y121253D01*
X139139Y121199D01*
X138752D01*
X138485Y121599D01*
X137698Y122124D01*
X137271Y122209D01*
Y119884D01*
Y117559D01*
X137698Y117644D01*
X138485Y118170D01*
X138652Y118419D01*
X139152D01*
X139265Y118249D01*
X139946Y117794D01*
X140750Y117634D01*
X140875Y117659D01*
X141484Y117050D01*
X141484Y117050D01*
X141875Y116789D01*
X142335Y116697D01*
X142335Y116697D01*
X142825D01*
X143016Y116235D01*
X141402Y114620D01*
X131790D01*
X126338Y120072D01*
X125947Y120334D01*
X125487Y120425D01*
X125487Y120425D01*
X79175D01*
X78225Y121376D01*
X77834Y121637D01*
X77373Y121728D01*
X77373Y121728D01*
X64864D01*
X64677Y122009D01*
X63996Y122464D01*
X63192Y122624D01*
X62389Y122464D01*
X61708Y122009D01*
X61253Y121327D01*
X61093Y120524D01*
X61253Y119721D01*
X61708Y119040D01*
X62389Y118585D01*
X63192Y118425D01*
X63996Y118585D01*
X64677Y119040D01*
X64864Y119320D01*
X76875D01*
X77825Y118369D01*
X78216Y118108D01*
X78676Y118017D01*
X78676Y118017D01*
X81028D01*
X81255Y117517D01*
X80916Y117009D01*
X80756Y116206D01*
X80916Y115402D01*
X81371Y114721D01*
X82052Y114266D01*
X82856Y114107D01*
X83659Y114266D01*
X84340Y114721D01*
X84349Y114734D01*
X111497D01*
X111841Y114219D01*
X112522Y113764D01*
X113326Y113604D01*
X114129Y113764D01*
X114810Y114219D01*
X115265Y114900D01*
X115425Y115704D01*
X115265Y116507D01*
X114810Y117188D01*
X114318Y117517D01*
X114470Y118017D01*
X124988D01*
X130440Y112565D01*
X130440Y112565D01*
X130831Y112304D01*
X131291Y112212D01*
X131291Y112212D01*
X137311D01*
X137547Y111771D01*
X137376Y111515D01*
X137291Y111087D01*
X141941D01*
X141856Y111515D01*
X141675Y111786D01*
X141981Y112228D01*
X142361Y112304D01*
X142752Y112565D01*
X145021Y114834D01*
X156659D01*
X156659Y114834D01*
X157120Y114926D01*
X157511Y115187D01*
X159306Y116982D01*
X173902D01*
Y116016D01*
X173537Y115470D01*
X173408Y114820D01*
X173537Y114171D01*
X173905Y113620D01*
X174456Y113252D01*
X175106Y113122D01*
X175756Y113252D01*
X176307Y113620D01*
X176675Y114171D01*
X176804Y114820D01*
X176675Y115470D01*
X176310Y116016D01*
Y116982D01*
X222089D01*
X223908Y115163D01*
X223908Y115163D01*
X224298Y114902D01*
X224759Y114811D01*
X229681D01*
Y107076D01*
X229401Y106889D01*
X228946Y106208D01*
X228786Y105404D01*
X228946Y104601D01*
X229401Y103920D01*
X230082Y103465D01*
X230885Y103305D01*
X231689Y103465D01*
X232370Y103920D01*
X232825Y104601D01*
X232985Y105404D01*
X232825Y106208D01*
X232370Y106889D01*
X232089Y107076D01*
Y114811D01*
X239581D01*
X240416Y113975D01*
X240416Y113975D01*
X240807Y113714D01*
X241268Y113622D01*
X241268Y113622D01*
X245748D01*
X245749Y113622D01*
X246209Y113714D01*
X246600Y113975D01*
X246832Y114207D01*
X249617D01*
X249804Y113926D01*
X250455Y113491D01*
X250480Y113295D01*
X250477Y113172D01*
X250448Y112969D01*
X249790Y112529D01*
X249335Y111848D01*
X249175Y111045D01*
X249335Y110241D01*
X249790Y109560D01*
X250471Y109105D01*
X251274Y108946D01*
X252078Y109105D01*
X252759Y109560D01*
X253214Y110241D01*
X253374Y111045D01*
X253308Y111375D01*
X254794Y112861D01*
X255055Y113252D01*
X255147Y113713D01*
X255147Y113713D01*
Y116766D01*
X255055Y117226D01*
X254794Y117617D01*
X254794Y117617D01*
X252891Y119520D01*
X252500Y119781D01*
X252039Y119873D01*
X252039Y119873D01*
X244997D01*
X244845Y120373D01*
X245276Y120661D01*
X245802Y121447D01*
X245887Y121875D01*
X241237D01*
X241322Y121447D01*
X241847Y120661D01*
X242278Y120373D01*
X242127Y119873D01*
X225116D01*
X224175Y120813D01*
X223784Y121074D01*
X223323Y121166D01*
X223323Y121166D01*
X182206D01*
X181939Y121666D01*
X182112Y121924D01*
X182166Y122198D01*
X178319D01*
X178373Y121924D01*
X178546Y121666D01*
X178279Y121166D01*
X176888D01*
X176665Y121666D01*
X176921Y122049D01*
X177050Y122698D01*
X176921Y123348D01*
X176553Y123899D01*
X176002Y124267D01*
X175352Y124396D01*
D02*
G37*
G36*
X136271Y122209D02*
X135843Y122124D01*
X135056Y121599D01*
X134531Y120812D01*
X134446Y120384D01*
X136271D01*
Y122209D01*
D02*
G37*
G36*
Y119384D02*
X134446D01*
X134531Y118956D01*
X135056Y118170D01*
X135843Y117644D01*
X136271Y117559D01*
Y119384D01*
D02*
G37*
G36*
X388689Y129348D02*
Y116642D01*
X401395D01*
X401271Y118214D01*
X400786Y120235D01*
X399991Y122155D01*
X398905Y123927D01*
X397555Y125508D01*
X395974Y126858D01*
X394202Y127944D01*
X392282Y128739D01*
X390261Y129224D01*
X388689Y129348D01*
D02*
G37*
G36*
X387689D02*
X386117Y129224D01*
X384096Y128739D01*
X382176Y127944D01*
X380403Y126858D01*
X378823Y125508D01*
X377473Y123927D01*
X376387Y122155D01*
X375592Y120235D01*
X375107Y118214D01*
X374983Y116642D01*
X387689D01*
Y129348D01*
D02*
G37*
G36*
X318242Y116336D02*
X316521D01*
Y114556D01*
X318242D01*
Y116336D01*
D02*
G37*
G36*
X323577Y114730D02*
Y113443D01*
X325061D01*
Y114730D01*
X323577D01*
D02*
G37*
G36*
X193101Y114924D02*
Y113098D01*
X194926D01*
X194841Y113526D01*
X194316Y114313D01*
X193529Y114838D01*
X193101Y114924D01*
D02*
G37*
G36*
X192101D02*
X191673Y114838D01*
X190887Y114313D01*
X190361Y113526D01*
X190276Y113098D01*
X192101D01*
Y114924D01*
D02*
G37*
G36*
X301453Y114845D02*
Y113020D01*
X303278D01*
X303193Y113447D01*
X302667Y114234D01*
X301881Y114760D01*
X301453Y114845D01*
D02*
G37*
G36*
X300453D02*
X300025Y114760D01*
X299238Y114234D01*
X298713Y113447D01*
X298628Y113020D01*
X300453D01*
Y114845D01*
D02*
G37*
G36*
X263869Y114618D02*
X262090D01*
Y112898D01*
X263869D01*
Y114618D01*
D02*
G37*
G36*
X75628Y111951D02*
X74144D01*
Y110664D01*
X75628D01*
Y111951D01*
D02*
G37*
G36*
X73144D02*
X71660D01*
Y110664D01*
X73144D01*
Y111951D01*
D02*
G37*
G36*
X194926Y112098D02*
X193101D01*
Y110273D01*
X193529Y110358D01*
X194316Y110884D01*
X194841Y111671D01*
X194926Y112098D01*
D02*
G37*
G36*
X192101D02*
X190276D01*
X190361Y111671D01*
X190887Y110884D01*
X191673Y110358D01*
X192101Y110273D01*
Y112098D01*
D02*
G37*
G36*
X303278Y112020D02*
X301453D01*
Y110195D01*
X301881Y110280D01*
X302667Y110805D01*
X303193Y111592D01*
X303278Y112020D01*
D02*
G37*
G36*
X300453D02*
X298628D01*
X298713Y111592D01*
X299238Y110805D01*
X300025Y110280D01*
X300453Y110195D01*
Y112020D01*
D02*
G37*
G36*
X263869Y111898D02*
X262090D01*
Y110177D01*
X263869D01*
Y111898D01*
D02*
G37*
G36*
X154653Y111881D02*
Y110056D01*
X156478D01*
X156393Y110484D01*
X155867Y111270D01*
X155081Y111796D01*
X154653Y111881D01*
D02*
G37*
G36*
X153653D02*
X153225Y111796D01*
X152438Y111270D01*
X151913Y110484D01*
X151828Y110056D01*
X153653D01*
Y111881D01*
D02*
G37*
G36*
X70040Y110791D02*
X68320D01*
Y109012D01*
X70040D01*
Y110791D01*
D02*
G37*
G36*
X67320D02*
X65599D01*
Y109012D01*
X67320D01*
Y110791D01*
D02*
G37*
G36*
X266649Y114618D02*
X264869D01*
Y112398D01*
Y110177D01*
X266649D01*
Y110496D01*
X268092D01*
X269176Y109412D01*
X269176Y109412D01*
X269567Y109151D01*
X270028Y109059D01*
X270028Y109059D01*
X271372D01*
X272032Y108617D01*
X272836Y108457D01*
X273639Y108617D01*
X274320Y109072D01*
X274776Y109753D01*
X274935Y110557D01*
X274776Y111360D01*
X274320Y112041D01*
X273639Y112496D01*
X272836Y112656D01*
X272032Y112496D01*
X271352Y112041D01*
X271004Y111521D01*
X270502Y111492D01*
X269795Y112199D01*
Y114299D01*
X266649D01*
Y114618D01*
D02*
G37*
G36*
X141941Y110087D02*
X140116D01*
Y108262D01*
X140544Y108347D01*
X141330Y108873D01*
X141856Y109660D01*
X141941Y110087D01*
D02*
G37*
G36*
X139116D02*
X137291D01*
X137376Y109660D01*
X137901Y108873D01*
X138688Y108347D01*
X139116Y108262D01*
Y110087D01*
D02*
G37*
G36*
X210580Y108107D02*
X210580Y108107D01*
X193602D01*
X193602Y108107D01*
X193141Y108016D01*
X192750Y107754D01*
X192750Y107754D01*
X191127Y106131D01*
X160261D01*
X160073Y106411D01*
X159392Y106866D01*
X158589Y107026D01*
X157786Y106866D01*
X157105Y106411D01*
X156649Y105730D01*
X156490Y104927D01*
X156649Y104123D01*
X157105Y103442D01*
X157786Y102987D01*
X158589Y102827D01*
X159392Y102987D01*
X160073Y103442D01*
X160261Y103722D01*
X191625D01*
X191625Y103722D01*
X192086Y103814D01*
X192477Y104075D01*
X194101Y105699D01*
X210081D01*
X211681Y104099D01*
X211681Y104099D01*
X212071Y103838D01*
X212532Y103746D01*
X212532Y103746D01*
X218866D01*
X219070Y103442D01*
X219751Y102987D01*
X220554Y102827D01*
X221358Y102987D01*
X222039Y103442D01*
X222494Y104123D01*
X222654Y104927D01*
X222494Y105730D01*
X222039Y106411D01*
X221358Y106866D01*
X220554Y107026D01*
X219751Y106866D01*
X219070Y106411D01*
X218899Y106155D01*
X213031D01*
X211432Y107754D01*
X211041Y108016D01*
X210580Y108107D01*
D02*
G37*
G36*
X156478Y109056D02*
X154653D01*
Y107231D01*
X155081Y107316D01*
X155867Y107842D01*
X156393Y108628D01*
X156478Y109056D01*
D02*
G37*
G36*
X153653D02*
X151828D01*
X151913Y108628D01*
X152438Y107842D01*
X153225Y107316D01*
X153653Y107231D01*
Y109056D01*
D02*
G37*
G36*
X345059Y107990D02*
X343280D01*
Y106270D01*
X345059D01*
Y107990D01*
D02*
G37*
G36*
X106225Y112359D02*
X105422Y112199D01*
X104741Y111744D01*
X104285Y111063D01*
X104126Y110260D01*
X104285Y109456D01*
X104741Y108775D01*
X105021Y108588D01*
Y105717D01*
X104575Y105271D01*
X75696D01*
X75310Y105546D01*
Y108377D01*
X75628D01*
Y109664D01*
X73644D01*
X71660D01*
Y108377D01*
X71979D01*
Y106843D01*
X71956Y106727D01*
X71979Y106611D01*
Y105851D01*
X71865Y105757D01*
X71865Y105757D01*
X70099D01*
X70040Y106232D01*
X70040D01*
Y108012D01*
X67820D01*
X65599D01*
Y106232D01*
X65918D01*
Y103087D01*
X69721D01*
Y103348D01*
X71366D01*
X71499Y103216D01*
X71889Y102954D01*
X72350Y102863D01*
X105073D01*
X105074Y102863D01*
X105534Y102954D01*
X105925Y103216D01*
X107077Y104367D01*
X107077Y104367D01*
X107338Y104758D01*
X107429Y105219D01*
Y108588D01*
X107710Y108775D01*
X108165Y109456D01*
X108324Y110260D01*
X108165Y111063D01*
X107710Y111744D01*
X107028Y112199D01*
X106225Y112359D01*
D02*
G37*
G36*
X370051Y106266D02*
Y104441D01*
X371876D01*
X371791Y104869D01*
X371266Y105655D01*
X370479Y106181D01*
X370051Y106266D01*
D02*
G37*
G36*
X345059Y105270D02*
X343280D01*
Y103549D01*
X345059D01*
Y105270D01*
D02*
G37*
G36*
X387689Y115642D02*
X374983D01*
X375107Y114070D01*
X375592Y112049D01*
X376387Y110128D01*
X377473Y108356D01*
X378823Y106776D01*
X380403Y105426D01*
X382176Y104340D01*
X384096Y103544D01*
X386117Y103059D01*
X387689Y102936D01*
Y115642D01*
D02*
G37*
G36*
X24697Y115642D02*
X11991D01*
X12114Y114070D01*
X12600Y112049D01*
X13395Y110128D01*
X14481Y108356D01*
X15831Y106776D01*
X17411Y105426D01*
X19184Y104340D01*
X21104Y103544D01*
X23125Y103059D01*
X24697Y102936D01*
Y115642D01*
D02*
G37*
G36*
X401395Y115642D02*
X388689D01*
Y102936D01*
X390261Y103059D01*
X392282Y103544D01*
X394202Y104340D01*
X395974Y105426D01*
X397555Y106776D01*
X398905Y108356D01*
X399991Y110128D01*
X400786Y112049D01*
X401271Y114070D01*
X401395Y115642D01*
D02*
G37*
G36*
X371876Y103441D02*
X370051D01*
Y101616D01*
X370479Y101701D01*
X371266Y102226D01*
X371791Y103013D01*
X371876Y103441D01*
D02*
G37*
G36*
X358726Y89533D02*
X356947D01*
Y87813D01*
X358726D01*
Y89533D01*
D02*
G37*
G36*
X350612Y87888D02*
X348892D01*
Y86108D01*
X350612D01*
Y87888D01*
D02*
G37*
G36*
X347892D02*
X346171D01*
Y86108D01*
X347892D01*
Y87888D01*
D02*
G37*
G36*
X52492Y85325D02*
Y83500D01*
X54317D01*
X54232Y83928D01*
X53707Y84714D01*
X52920Y85240D01*
X52492Y85325D01*
D02*
G37*
G36*
X54317Y82500D02*
X52492D01*
Y80675D01*
X52920Y80760D01*
X53707Y81286D01*
X54232Y82072D01*
X54317Y82500D01*
D02*
G37*
G36*
X51492Y85325D02*
X51064Y85240D01*
X50278Y84714D01*
X49869Y84102D01*
X48229D01*
Y81882D01*
Y79661D01*
X50009D01*
Y80864D01*
X50509Y81131D01*
X51064Y80760D01*
X51492Y80675D01*
Y83000D01*
Y85325D01*
D02*
G37*
G36*
X362185Y80516D02*
X360360D01*
Y78691D01*
X360788Y78776D01*
X361574Y79301D01*
X362100Y80088D01*
X362185Y80516D01*
D02*
G37*
G36*
X359360D02*
X357535D01*
X357620Y80088D01*
X358145Y79301D01*
X358932Y78776D01*
X359360Y78691D01*
Y80516D01*
D02*
G37*
G36*
X60226Y79953D02*
X58506D01*
Y78174D01*
X60226D01*
Y79953D01*
D02*
G37*
G36*
X57506D02*
X55785D01*
Y78174D01*
X57506D01*
Y79953D01*
D02*
G37*
G36*
X352626Y71184D02*
X351142D01*
Y69897D01*
X352626D01*
Y71184D01*
D02*
G37*
G36*
X359633Y59187D02*
Y57362D01*
X361458D01*
X361373Y57790D01*
X360847Y58577D01*
X360060Y59102D01*
X359633Y59187D01*
D02*
G37*
G36*
X358633D02*
X358205Y59102D01*
X357418Y58577D01*
X356893Y57790D01*
X356807Y57362D01*
X358633D01*
Y59187D01*
D02*
G37*
G36*
X361458Y56362D02*
X359633D01*
Y54537D01*
X360060Y54622D01*
X360847Y55148D01*
X361373Y55934D01*
X361458Y56362D01*
D02*
G37*
G36*
X358633D02*
X356807D01*
X356893Y55934D01*
X357418Y55148D01*
X358205Y54622D01*
X358633Y54537D01*
Y56362D01*
D02*
G37*
G36*
X51083Y75698D02*
X50280Y75538D01*
X49599Y75083D01*
X49144Y74402D01*
X48984Y73598D01*
X49144Y72795D01*
X49599Y72114D01*
X50280Y71659D01*
X51083Y71499D01*
X51265Y71535D01*
X53473Y69327D01*
Y59550D01*
X53085Y59290D01*
X52630Y58609D01*
X52470Y57806D01*
X52630Y57002D01*
X53085Y56321D01*
X53766Y55866D01*
X54569Y55706D01*
X55373Y55866D01*
X55933Y56241D01*
X56433Y56059D01*
Y51475D01*
X54540Y49582D01*
X54352Y49708D01*
X53933Y49791D01*
X53701D01*
X53685Y49876D01*
X53230Y50557D01*
X52548Y51012D01*
X51745Y51172D01*
X50942Y51012D01*
X50261Y50557D01*
X49806Y49876D01*
X49646Y49072D01*
X49806Y48269D01*
X50261Y47588D01*
X50942Y47133D01*
X51745Y46973D01*
X52548Y47133D01*
X53230Y47588D01*
X53671Y47408D01*
X53793Y47285D01*
X54149Y47048D01*
X54568Y46964D01*
X54988Y47048D01*
X55343Y47285D01*
X58304Y50247D01*
X58542Y50602D01*
X58625Y51021D01*
Y72293D01*
X58542Y72712D01*
X58304Y73068D01*
X57724Y73648D01*
X57368Y73886D01*
X57178Y73924D01*
X56750Y74563D01*
X56069Y75018D01*
X55266Y75178D01*
X54462Y75018D01*
X53781Y74563D01*
X53565Y74240D01*
X53034Y74345D01*
X53023Y74402D01*
X52568Y75083D01*
X51887Y75538D01*
X51083Y75698D01*
D02*
G37*
G36*
X360736Y30923D02*
Y18216D01*
X373442D01*
X373319Y19789D01*
X372833Y21810D01*
X372038Y23730D01*
X370952Y25502D01*
X369602Y27083D01*
X368022Y28432D01*
X366249Y29518D01*
X364329Y30314D01*
X362308Y30799D01*
X360736Y30923D01*
D02*
G37*
G36*
X359736D02*
X358164Y30799D01*
X356143Y30314D01*
X354223Y29518D01*
X352451Y28432D01*
X350870Y27083D01*
X349520Y25502D01*
X348434Y23730D01*
X347639Y21810D01*
X347154Y19789D01*
X347030Y18216D01*
X359736D01*
Y30923D01*
D02*
G37*
G36*
X373442Y17217D02*
X360736D01*
Y4510D01*
X362308Y4634D01*
X364329Y5119D01*
X366249Y5915D01*
X368022Y7001D01*
X369602Y8350D01*
X370952Y9931D01*
X372038Y11703D01*
X372833Y13623D01*
X373319Y15644D01*
X373442Y17217D01*
D02*
G37*
G36*
X359736D02*
X347030D01*
X347154Y15644D01*
X347639Y13623D01*
X348434Y11703D01*
X349520Y9931D01*
X350870Y8350D01*
X352451Y7001D01*
X354223Y5915D01*
X356143Y5119D01*
X358164Y4634D01*
X359736Y4510D01*
Y17217D01*
D02*
G37*
%LPD*%
D10*
X51745Y49072D02*
X52122Y48696D01*
X53933D02*
X54568Y48060D01*
X52122Y48696D02*
X53933D01*
X54568Y48060D02*
X57529Y51021D01*
X51083Y73266D02*
Y73598D01*
Y73266D02*
X54569Y69780D01*
Y57806D02*
Y69780D01*
X56949Y72873D02*
X57529Y72293D01*
Y51021D02*
Y72293D01*
X55471Y72873D02*
X56949D01*
X55266Y73079D02*
X55471Y72873D01*
D36*
X49161Y98964D02*
D03*
X44830D02*
D03*
X55716Y124466D02*
D03*
X51386D02*
D03*
D37*
X264369Y112398D02*
D03*
X267834D02*
D03*
X345559Y105770D02*
D03*
X349024D02*
D03*
X359226Y87313D02*
D03*
X362691D02*
D03*
X47729Y81882D02*
D03*
X44265D02*
D03*
X43002Y104193D02*
D03*
X46466D02*
D03*
D38*
X335844Y121729D02*
D03*
Y126059D02*
D03*
X370779Y94573D02*
D03*
Y98904D02*
D03*
D39*
X318741Y110591D02*
D03*
Y114056D02*
D03*
X348392Y82144D02*
D03*
Y85608D02*
D03*
X58006Y80453D02*
D03*
Y83918D02*
D03*
X67820Y105047D02*
D03*
Y108512D02*
D03*
D41*
X323077Y109793D02*
D03*
Y112943D02*
D03*
X353127Y74834D02*
D03*
Y71684D02*
D03*
X73644Y107014D02*
D03*
Y110164D02*
D03*
D42*
X336771Y117277D02*
X338138Y118644D01*
X331868Y117277D02*
X336771D01*
X338138Y118644D02*
X342567D01*
X329309Y119867D02*
X329663D01*
X331335D01*
X329894Y112804D02*
X333741D01*
X329309Y113390D02*
X329894Y112804D01*
X329309Y113390D02*
Y119867D01*
X359944Y120923D02*
X373911Y106957D01*
Y102233D02*
Y106957D01*
X365638Y98900D02*
X366541Y99803D01*
X365638Y92090D02*
Y98900D01*
X366541Y99803D02*
Y106138D01*
X51418Y124498D02*
Y128243D01*
X51386Y124466D02*
X51418Y124498D01*
Y128243D02*
X51450Y128275D01*
X73519Y104067D02*
X105074D01*
X72350D02*
X73519D01*
Y106889D02*
X73644Y107014D01*
X73519Y104067D02*
Y106889D01*
X73447Y107014D02*
X73644D01*
X67986Y104552D02*
X71865D01*
X73160Y106727D02*
X73447Y107014D01*
X71865Y104552D02*
X72350Y104067D01*
X322790Y109506D02*
Y109884D01*
X44149Y76078D02*
Y81882D01*
X105074Y104067D02*
X106225Y105219D01*
Y110260D01*
X125487Y119221D02*
X131291Y113416D01*
X78676Y119221D02*
X125487D01*
X77373Y120524D02*
X78676Y119221D01*
X212532Y104951D02*
X220530D01*
X220554Y104927D01*
X365967Y87313D02*
X367119Y88464D01*
X362691Y87313D02*
X365967D01*
X367119Y88464D02*
X367594D01*
X359671Y111878D02*
X362709Y108840D01*
X363839D02*
X366541Y106138D01*
X362709Y108840D02*
X363839D01*
X258533Y121161D02*
X263580Y126208D01*
X254555Y104520D02*
X258533Y108498D01*
Y121161D01*
X251274Y111045D02*
X253942Y113713D01*
Y116766D01*
X246333Y115411D02*
X251289D01*
X241268Y114827D02*
X245749D01*
X246333Y115411D01*
X252039Y118668D02*
X253942Y116766D01*
X224617Y118668D02*
X252039D01*
X240079Y116015D02*
X241268Y114827D01*
X231118Y116015D02*
X240079D01*
X156659Y116038D02*
X158807Y118186D01*
X144523Y116038D02*
X156659D01*
X191625Y104927D02*
X193602Y106903D01*
X158589Y104927D02*
X191625D01*
X343088Y121729D02*
X362155Y102662D01*
X359415Y105226D02*
Y105402D01*
X360691Y97177D02*
X362155Y98641D01*
Y102662D01*
X360589Y97177D02*
X360691D01*
X359036Y101224D02*
Y101525D01*
X351865Y104953D02*
X355088Y101729D01*
Y101720D02*
Y101729D01*
X350490Y110097D02*
X354108Y106479D01*
Y106453D02*
X359036Y101525D01*
X354108Y106453D02*
Y106479D01*
X350154Y104953D02*
X351865D01*
X370779Y86968D02*
Y94376D01*
X367530Y83719D02*
X370779Y86968D01*
X367347Y88711D02*
X367594Y88464D01*
X363352Y74834D02*
X372336Y83817D01*
X353127Y74834D02*
X363352D01*
X349311Y92137D02*
Y95133D01*
Y92137D02*
X356124Y85324D01*
X356871Y83719D02*
X357730D01*
X356124Y84466D02*
Y85324D01*
X357730Y83719D02*
X357839Y83609D01*
X356124Y84466D02*
X356871Y83719D01*
X357839Y83609D02*
X357949Y83719D01*
X367530D01*
X352621Y82144D02*
X353127Y81638D01*
X348392Y82144D02*
X352621D01*
X353127Y74834D02*
Y81638D01*
X275007Y103678D02*
X285783D01*
X275003Y103675D02*
X275007Y103678D01*
X271102Y105457D02*
X273028D01*
X273902Y106332D01*
X284678D01*
X270028Y110263D02*
X272542D01*
X270766Y105121D02*
X271102Y105457D01*
X267893Y112398D02*
X270028Y110263D01*
X272542D02*
X272836Y110557D01*
X267834Y112398D02*
X267893D01*
X336119Y121454D02*
X336393Y121729D01*
X285783Y103678D02*
X299883Y117779D01*
X284678Y106332D02*
X285626Y107280D01*
Y109048D01*
X327282Y119867D02*
X329309D01*
X333741Y112804D02*
X339462Y107083D01*
Y102057D02*
Y107083D01*
Y102057D02*
X342997Y98523D01*
X318741Y110591D02*
X319462Y109871D01*
X332551Y109793D02*
X336403Y105942D01*
X322593Y109506D02*
X322790D01*
X36841Y126307D02*
X46297Y116851D01*
X323077Y109793D02*
X332551D01*
X318741Y110591D02*
X322082D01*
X322790Y109884D01*
X223323Y119962D02*
X224617Y118668D01*
X144797Y127532D02*
Y130786D01*
Y124279D02*
Y127532D01*
X147087Y127373D02*
X147273Y127188D01*
X144956Y127373D02*
X147087D01*
X144797Y127532D02*
X144956Y127373D01*
X193602Y106903D02*
X210580D01*
X212532Y104951D01*
X224759Y116015D02*
X231118D01*
X230885Y115782D02*
X231118Y116015D01*
X230885Y105404D02*
Y115782D01*
X247162Y104520D02*
X254555D01*
X247003Y104361D02*
X247162Y104520D01*
X82856Y115938D02*
X113091D01*
X63192Y120524D02*
X77373D01*
X33351Y97025D02*
X39460Y90917D01*
Y84672D02*
Y90917D01*
X33351Y97025D02*
Y105232D01*
X39460Y84672D02*
X42071Y82060D01*
X40007Y110932D02*
X40041D01*
X37989Y108914D02*
X40007Y110932D01*
X37033Y108914D02*
X37989D01*
X33351Y105232D02*
X37033Y108914D01*
X44086Y82060D02*
X44265Y81882D01*
X42071Y82060D02*
X44086D01*
X286373Y109795D02*
X289372D01*
X302715Y119566D02*
X303489Y120340D01*
X303455Y117779D02*
X304230Y118553D01*
X299143Y119566D02*
X302715D01*
X289372Y109795D02*
X299143Y119566D01*
X303489Y120340D02*
X323258D01*
X299883Y117779D02*
X303455D01*
X285626Y109048D02*
X286373Y109795D01*
X156011Y117901D02*
X158072Y119962D01*
X142335Y117901D02*
X156011D01*
X140776Y119461D02*
X142335Y117901D01*
X131291Y113416D02*
X141900D01*
X144523Y116038D01*
X157753Y125894D02*
X157809Y125837D01*
X162608D01*
X144748Y124230D02*
X144797Y124279D01*
X162608Y125837D02*
X162665Y125780D01*
X243562Y122375D02*
Y122375D01*
X243562Y122375D02*
X243562Y122375D01*
X175265Y120214D02*
Y122611D01*
X175361Y118186D02*
X222588D01*
X175265Y122611D02*
X175352Y122698D01*
X140750Y119734D02*
X140776Y119708D01*
Y119461D02*
Y119708D01*
X175012Y119962D02*
X175265Y120214D01*
X158072Y119962D02*
X175012D01*
X223323D01*
X175106Y117931D02*
X175361Y118186D01*
X158807D02*
X175361D01*
X175106Y114820D02*
Y117931D01*
X222588Y118186D02*
X224759Y116015D01*
X342567Y118644D02*
X350490Y110721D01*
Y110097D02*
Y110721D01*
X331918Y120450D02*
X334565D01*
X331335Y119867D02*
X331918Y120450D01*
X325968Y118553D02*
X327282Y119867D01*
X334565Y120450D02*
X334966Y120851D01*
X336393Y121729D02*
X343088D01*
X334966Y120851D02*
X335163D01*
X335844Y121532D02*
Y121729D01*
X335163Y120851D02*
X335844Y121532D01*
X370779Y99101D02*
X373911Y102233D01*
X370779Y98904D02*
Y99101D01*
X355111Y67768D02*
Y70076D01*
X354076Y74081D02*
X354322D01*
X354644Y73759D01*
X354644D01*
X355398Y73005D01*
Y70363D02*
Y73005D01*
X355111Y70076D02*
X355398Y70363D01*
X353475Y74682D02*
X354076Y74081D01*
X304230Y118553D02*
X325968D01*
X323258Y120340D02*
X324136Y121218D01*
X324611D01*
X335163Y126937D02*
X335844Y126256D01*
Y126059D02*
Y126256D01*
X46297Y107146D02*
Y116851D01*
X42757Y74212D02*
Y74687D01*
X334799Y127104D02*
X334966Y126937D01*
X335163D01*
X332977Y127440D02*
X333313Y127104D01*
X334799D01*
X42757Y74687D02*
X44149Y76078D01*
X360474Y125401D02*
X360567Y125308D01*
X351765Y57434D02*
Y64422D01*
X352029Y125401D02*
X360474D01*
X351936Y125494D02*
X352029Y125401D01*
X351765Y64422D02*
X355111Y67768D01*
X144797Y130786D02*
X144846Y130835D01*
X113091Y115938D02*
X113326Y115704D01*
X42943Y104193D02*
X43002D01*
X44149Y81882D02*
X44157Y81890D01*
D43*
X58758Y91798D02*
X58832D01*
X56857Y89897D02*
X58758Y91798D01*
X58523Y94473D02*
X58639Y94357D01*
Y91991D02*
X58832Y91798D01*
X58639Y91991D02*
Y94357D01*
X58523Y94473D02*
Y102375D01*
X46844Y89897D02*
X56857D01*
X44766Y91975D02*
X46844Y89897D01*
X46247Y96247D02*
X48964Y98964D01*
X40702Y96247D02*
X46247D01*
X54692Y93419D02*
X55864Y94591D01*
Y96679D01*
X54692Y92833D02*
Y93419D01*
X51084Y101460D02*
X55864Y96679D01*
X61827Y98966D02*
Y101003D01*
X56493Y104405D02*
X58523Y102375D01*
X60971Y98110D02*
X61827Y98966D01*
X60971Y95487D02*
Y98110D01*
X57894Y104936D02*
X61827Y101003D01*
X60013Y85984D02*
Y86401D01*
X61484Y87872D01*
Y88131D01*
X58006Y83977D02*
X60013Y85984D01*
X48964Y98964D02*
X49161D01*
X39019Y101460D02*
X51084D01*
X54610Y120488D02*
X56493Y118605D01*
X54486Y120488D02*
X54610D01*
X56493Y104405D02*
Y118605D01*
X55913Y124466D02*
X56799Y123580D01*
Y123404D02*
X57894Y122309D01*
X55716Y124466D02*
X55913D01*
X57894Y104936D02*
Y122309D01*
X56799Y123404D02*
Y123580D01*
X58006Y83918D02*
Y83977D01*
X38386Y100827D02*
X39019Y101460D01*
X37800Y100827D02*
X38386D01*
X38640Y104257D02*
X42879D01*
X42943Y104193D01*
X38640Y104257D02*
X39027Y103870D01*
D44*
X39275Y93602D02*
X41798D01*
X35866Y97010D02*
X39275Y93602D01*
X46131Y94620D02*
X47697Y93055D01*
X42816Y94620D02*
X46131D01*
X41798Y93602D02*
X42816Y94620D01*
X47697Y93055D02*
X50637D01*
Y92575D02*
Y93055D01*
X35540Y98989D02*
X35897D01*
X39704D02*
X43835D01*
X35897D02*
X36705Y98181D01*
X38896D02*
X39704Y98989D01*
X35866Y97010D02*
Y98662D01*
X36705Y98181D02*
X38896D01*
X35540Y98989D02*
X35866Y98662D01*
X35155Y99374D02*
X35540Y98989D01*
X35155Y99374D02*
Y104536D01*
X37765Y107146D02*
X46297D01*
X35155Y104536D02*
X37765Y107146D01*
D45*
X331868Y117277D02*
D03*
X51745Y49072D02*
D03*
X51083Y73598D02*
D03*
X58832Y91798D02*
D03*
X54692Y92833D02*
D03*
X44766Y91975D02*
D03*
X50637Y93055D02*
D03*
X60971Y95487D02*
D03*
X61484Y88131D02*
D03*
X359328Y120960D02*
D03*
X40702Y96247D02*
D03*
X54486Y120488D02*
D03*
X365638Y92090D02*
D03*
X51450Y128275D02*
D03*
X106225Y110260D02*
D03*
X220554Y104927D02*
D03*
X359054Y111915D02*
D03*
X258533Y111408D02*
D03*
X251274Y111045D02*
D03*
X251289Y115411D02*
D03*
X154153Y109556D02*
D03*
X158589Y104927D02*
D03*
X359415Y105226D02*
D03*
X360589Y97177D02*
D03*
X359036Y101224D02*
D03*
X355088Y101720D02*
D03*
X367594Y88464D02*
D03*
X372336Y83817D02*
D03*
X349311Y95133D02*
D03*
X359860Y81016D02*
D03*
X275003Y103675D02*
D03*
X270766Y105121D02*
D03*
X272836Y110557D02*
D03*
X336403Y105942D02*
D03*
X342997Y98523D02*
D03*
X230885Y105404D02*
D03*
X247003Y104361D02*
D03*
X63192Y120524D02*
D03*
X37800Y100827D02*
D03*
X38640Y104257D02*
D03*
X40041Y110932D02*
D03*
X55266Y73079D02*
D03*
X54569Y57806D02*
D03*
X53754Y102623D02*
D03*
X51992Y83000D02*
D03*
X36841Y126307D02*
D03*
X42757Y74212D02*
D03*
X324611Y121218D02*
D03*
X345627Y123503D02*
D03*
X263580Y126208D02*
D03*
X243562Y122375D02*
D03*
X351936Y125494D02*
D03*
X360567Y125308D02*
D03*
X144846Y130835D02*
D03*
X136771Y119884D02*
D03*
X113326Y115704D02*
D03*
X82856Y116206D02*
D03*
X14859Y127843D02*
D03*
X354108Y106479D02*
D03*
X369551Y103941D02*
D03*
X300953Y112520D02*
D03*
X192601Y112598D02*
D03*
X351765Y57434D02*
D03*
X139616Y110587D02*
D03*
X359133Y56862D02*
D03*
X332977Y127440D02*
D03*
X157753Y125894D02*
D03*
X144748Y124230D02*
D03*
X140750Y119734D02*
D03*
D46*
X388189Y116142D02*
D03*
X360236Y17717D02*
D03*
X51181D02*
D03*
X25197Y116142D02*
D03*
D47*
X162665Y125780D02*
D03*
X147273Y127188D02*
D03*
X175352Y122698D02*
D03*
X180243D02*
D03*
X175106Y114820D02*
D03*
M02*
