G04*
G04 #@! TF.GenerationSoftware,Altium Limited,Altium Designer,21.6.4 (81)*
G04*
G04 Layer_Color=16711935*
%FSLAX25Y25*%
%MOIN*%
G70*
G04*
G04 #@! TF.SameCoordinates,FEAF3D2B-D975-464B-86DB-8C6995E3C2F8*
G04*
G04*
G04 #@! TF.FilePolarity,Positive*
G04*
G01*
G75*
%ADD50C,0.00050*%
D50*
X399608Y115757D02*
X399523Y116755D01*
X399270Y117724D01*
X398858Y118637D01*
X398297Y119467D01*
X397604Y120190D01*
X396798Y120785D01*
X395904Y121236D01*
X394946Y121530D01*
X393953Y121657D01*
X392952Y121614D01*
X391973Y121403D01*
X391043Y121030D01*
X390191Y120505D01*
X389439Y119843D01*
X388809Y119064D01*
X388321Y118189D01*
X387987Y117245D01*
X387818Y116258D01*
Y115256D01*
X387987Y114269D01*
X388321Y113324D01*
X388809Y112450D01*
X389439Y111670D01*
X390191Y111009D01*
X391043Y110484D01*
X391973Y110110D01*
X392952Y109899D01*
X393953Y109856D01*
X394946Y109984D01*
X395904Y110277D01*
X396798Y110728D01*
X397604Y111324D01*
X398297Y112047D01*
X398858Y112877D01*
X399270Y113789D01*
X399523Y114759D01*
X399608Y115757D01*
X393702Y100796D02*
X392700Y100769D01*
X391702Y100688D01*
X390709Y100552D01*
X389724Y100364D01*
X388752Y100122D01*
X387794Y99827D01*
X386853Y99482D01*
X385933Y99086D01*
X385035Y98641D01*
X384162Y98147D01*
X383318Y97608D01*
X382504Y97023D01*
X381723Y96395D01*
X380977Y95726D01*
X380268Y95017D01*
X379599Y94271D01*
X378971Y93490D01*
X378387Y92676D01*
X377847Y91832D01*
X377354Y90960D01*
X376908Y90062D01*
X376512Y89141D01*
X376167Y88200D01*
X375873Y87242D01*
X375631Y86270D01*
X375442Y85286D01*
X375307Y84293D01*
X375225Y83294D01*
X375198Y82292D01*
X365356Y1D02*
X366385Y55D01*
X367402Y216D01*
X368397Y483D01*
X369359Y852D01*
X370277Y1320D01*
X371141Y1881D01*
X371942Y2530D01*
X372670Y3258D01*
X373319Y4059D01*
X373880Y4923D01*
X374347Y5841D01*
X374716Y6802D01*
X374983Y7797D01*
X375144Y8815D01*
X375198Y9844D01*
X331694Y97049D02*
X331560Y98068D01*
X331167Y99017D01*
X330541Y99832D01*
X329726Y100458D01*
X328776Y100852D01*
X327757Y100986D01*
X69096D02*
X68077Y100852D01*
X67127Y100458D01*
X66312Y99832D01*
X65686Y99017D01*
X65293Y98068D01*
X65159Y97049D01*
X38190Y9844D02*
X38244Y8815D01*
X38405Y7797D01*
X38672Y6802D01*
X39041Y5841D01*
X39509Y4923D01*
X40070Y4059D01*
X40718Y3258D01*
X41447Y2530D01*
X42248Y1881D01*
X43112Y1320D01*
X44030Y852D01*
X44991Y483D01*
X45987Y216D01*
X47004Y55D01*
X48033Y1D01*
X38190Y82292D02*
X38163Y83294D01*
X38082Y84293D01*
X37947Y85286D01*
X37758Y86270D01*
X37516Y87243D01*
X37222Y88200D01*
X36876Y89141D01*
X36480Y90062D01*
X36035Y90960D01*
X35542Y91832D01*
X35002Y92676D01*
X34417Y93490D01*
X33789Y94271D01*
X33120Y95017D01*
X32412Y95726D01*
X31666Y96395D01*
X30885Y97023D01*
X30071Y97608D01*
X29226Y98147D01*
X28354Y98641D01*
X27456Y99086D01*
X26535Y99482D01*
X25595Y99827D01*
X24637Y100122D01*
X23664Y100364D01*
X22680Y100552D01*
X21687Y100688D01*
X20688Y100769D01*
X19686Y100796D01*
X10238Y106702D02*
X10327Y105676D01*
X10594Y104682D01*
X11029Y103749D01*
X11619Y102906D01*
X12347Y102178D01*
X13190Y101587D01*
X14123Y101152D01*
X15118Y100886D01*
X16143Y100796D01*
X15868Y130622D02*
X14877Y130491D01*
X13923Y130195D01*
X13033Y129743D01*
X12231Y129146D01*
X11541Y128424D01*
X10983Y127595D01*
X10573Y126685D01*
X10322Y125718D01*
X10238Y124723D01*
X403151D02*
X403066Y125718D01*
X402815Y126685D01*
X402405Y127595D01*
X401847Y128424D01*
X401158Y129146D01*
X400356Y129743D01*
X399465Y130195D01*
X398511Y130491D01*
X397521Y130622D01*
X397246Y100796D02*
X398271Y100886D01*
X399265Y101152D01*
X400198Y101587D01*
X401042Y102178D01*
X401769Y102906D01*
X402360Y103749D01*
X402795Y104682D01*
X403061Y105676D01*
X403151Y106702D01*
X393702Y100796D02*
X397246D01*
X375198Y9844D02*
Y82292D01*
X331694Y1D02*
X365356D01*
X331694D02*
Y97049D01*
X69096Y100986D02*
X327757D01*
X65159Y1D02*
Y97049D01*
X48033Y1D02*
X65159D01*
X38190Y9844D02*
Y82292D01*
X16143Y100796D02*
X19686D01*
X10238Y106702D02*
Y124723D01*
X15868Y130622D02*
X19642Y130796D01*
X23418Y130967D01*
X27197Y131135D01*
X30979Y131299D01*
X34763Y131459D01*
X38549Y131616D01*
X42338Y131770D01*
X46129Y131920D01*
X49922Y132067D01*
X53717Y132210D01*
X57515Y132349D01*
X61314Y132485D01*
X65116Y132618D01*
X68919Y132747D01*
X72724Y132872D01*
X76531Y132994D01*
X80340Y133113D01*
X84151Y133228D01*
X87963Y133339D01*
X91777Y133447D01*
X95593Y133551D01*
X99410Y133652D01*
X103228Y133749D01*
X107048Y133843D01*
X110870Y133934D01*
X114692Y134020D01*
X118516Y134104D01*
X122342Y134183D01*
X126168Y134259D01*
X129995Y134332D01*
X133824Y134401D01*
X137653Y134467D01*
X141483Y134529D01*
X145315Y134587D01*
X149147Y134642D01*
X152980Y134693D01*
X156814Y134741D01*
X160648Y134785D01*
X164483Y134826D01*
X168318Y134863D01*
X172154Y134897D01*
X175991Y134927D01*
X179828Y134954D01*
X183665Y134977D01*
X187503Y134996D01*
X191341Y135012D01*
X195179Y135025D01*
X199017Y135034D01*
X202856Y135039D01*
X206694Y135041D01*
X210533Y135039D01*
X214371Y135034D01*
X218210Y135025D01*
X222048Y135012D01*
X225886Y134996D01*
X229723Y134977D01*
X233561Y134954D01*
X237398Y134927D01*
X241234Y134897D01*
X245070Y134863D01*
X248906Y134826D01*
X252741Y134785D01*
X256575Y134741D01*
X260409Y134693D01*
X264242Y134642D01*
X268074Y134587D01*
X271905Y134529D01*
X275735Y134467D01*
X279565Y134401D01*
X283393Y134332D01*
X287221Y134259D01*
X291047Y134183D01*
X294872Y134104D01*
X298696Y134020D01*
X302519Y133934D01*
X306340Y133843D01*
X310160Y133749D01*
X313979Y133652D01*
X317796Y133551D01*
X321611Y133447D01*
X325425Y133339D01*
X329238Y133228D01*
X333048Y133113D01*
X336857Y132994D01*
X340664Y132872D01*
X344469Y132747D01*
X348273Y132618D01*
X352074Y132485D01*
X355874Y132349D01*
X359671Y132210D01*
X363467Y132067D01*
X367260Y131920D01*
X371051Y131770D01*
X374839Y131616D01*
X378626Y131459D01*
X382410Y131299D01*
X386191Y131135D01*
X389970Y130967D01*
X393747Y130796D01*
X397521Y130622D01*
X403151Y106702D02*
Y124723D01*
M02*
